<svg id="svg" version="1.1" width="400" height="400" viewBox="0 0 400 400" xmlns="http://www.w3.org/2000/svg" xmlns:xlink="http://www.w3.org/1999/xlink" ><g id="svgg"><path id="path0" d="M182.500 19.072 C 180.465 19.159,178.800 19.403,178.800 19.615 C 178.800 19.827,177.630 20.000,176.200 20.000 C 174.770 20.000,173.600 20.161,173.600 20.357 C 173.600 20.553,171.800 20.843,169.600 21.000 C 167.400 21.157,165.600 21.424,165.600 21.591 C 165.600 21.759,164.340 22.021,162.800 22.173 C 161.260 22.324,160.000 22.618,160.000 22.824 C 160.000 23.031,159.190 23.200,158.200 23.200 C 157.210 23.200,156.400 23.359,156.400 23.554 C 156.400 23.749,155.410 24.032,154.200 24.183 C 152.990 24.334,152.000 24.625,152.000 24.829 C 152.000 25.033,151.370 25.200,150.600 25.200 C 149.830 25.200,149.200 25.369,149.200 25.575 C 149.200 25.782,148.390 26.072,147.400 26.221 C 146.410 26.369,145.600 26.650,145.600 26.845 C 145.600 27.040,144.970 27.200,144.200 27.200 C 143.430 27.200,142.800 27.357,142.800 27.549 C 142.800 27.741,142.080 28.013,141.200 28.154 C 140.320 28.294,139.600 28.570,139.600 28.767 C 139.600 28.964,138.700 29.249,137.600 29.400 C 136.500 29.551,135.600 29.838,135.600 30.038 C 135.600 30.237,135.330 30.400,135.000 30.400 C 134.670 30.400,134.400 30.557,134.400 30.749 C 134.400 30.941,133.680 31.213,132.800 31.354 C 131.920 31.494,131.200 31.787,131.200 32.005 C 131.200 32.222,130.750 32.400,130.200 32.400 C 129.650 32.400,129.200 32.572,129.200 32.782 C 129.200 32.992,128.570 33.282,127.800 33.426 C 127.030 33.571,126.400 33.849,126.400 34.045 C 126.400 34.240,125.950 34.400,125.400 34.400 C 124.850 34.400,124.400 34.566,124.400 34.768 C 124.400 34.971,123.860 35.255,123.200 35.400 C 122.540 35.545,122.000 35.821,122.000 36.014 C 122.000 36.206,121.370 36.482,120.600 36.626 C 119.830 36.771,119.200 37.049,119.200 37.245 C 119.200 37.440,118.930 37.600,118.600 37.600 C 118.270 37.600,118.000 37.766,118.000 37.968 C 118.000 38.171,117.460 38.455,116.800 38.600 C 116.140 38.745,115.600 39.029,115.600 39.232 C 115.600 39.434,115.240 39.600,114.800 39.600 C 114.360 39.600,114.000 39.760,114.000 39.957 C 114.000 40.153,113.550 40.426,113.000 40.564 C 112.450 40.702,112.000 40.978,112.000 41.176 C 112.000 41.374,111.460 41.655,110.800 41.800 C 110.140 41.945,109.600 42.229,109.600 42.432 C 109.600 42.634,109.330 42.800,109.000 42.800 C 108.670 42.800,108.400 42.977,108.400 43.192 C 108.400 43.408,107.950 43.698,107.400 43.836 C 106.850 43.974,106.400 44.247,106.400 44.443 C 106.400 44.640,106.059 44.800,105.643 44.800 C 105.226 44.800,104.782 45.070,104.655 45.400 C 104.529 45.730,104.072 46.000,103.640 46.000 C 103.207 46.000,102.742 46.354,102.604 46.786 C 102.448 47.280,101.853 47.666,101.005 47.825 C 100.263 47.965,99.559 48.331,99.440 48.639 C 99.322 48.948,98.872 49.200,98.440 49.200 C 98.007 49.200,97.543 49.551,97.406 49.980 C 97.270 50.408,96.763 50.884,96.280 51.037 C 95.796 51.189,95.109 51.649,94.753 52.057 C 94.397 52.466,93.902 52.800,93.653 52.800 C 92.805 52.800,93.181 54.891,94.200 55.835 C 94.750 56.345,95.200 57.015,95.200 57.325 C 95.200 57.635,95.639 58.218,96.176 58.621 C 96.713 59.024,97.256 59.769,97.384 60.277 C 97.511 60.785,97.792 61.200,98.008 61.200 C 98.223 61.200,98.400 61.404,98.400 61.654 C 98.400 61.904,98.850 62.525,99.400 63.035 C 99.950 63.545,100.400 64.159,100.400 64.400 C 100.400 64.641,100.825 65.235,101.344 65.719 C 101.864 66.204,102.416 67.005,102.571 67.500 C 102.727 67.995,103.022 68.400,103.227 68.400 C 103.432 68.400,103.600 68.604,103.600 68.854 C 103.600 69.104,104.050 69.725,104.600 70.235 C 105.150 70.745,105.600 71.350,105.600 71.581 C 105.600 72.291,107.156 73.600,108.000 73.600 C 108.440 73.600,108.800 73.420,108.800 73.200 C 108.800 72.980,109.062 72.800,109.382 72.800 C 109.702 72.800,110.414 72.350,110.964 71.800 C 111.514 71.250,112.157 70.800,112.394 70.800 C 112.631 70.800,112.929 70.530,113.055 70.200 C 113.182 69.870,113.607 69.600,114.000 69.600 C 114.393 69.600,114.818 69.330,114.945 69.000 C 115.071 68.670,115.528 68.400,115.960 68.400 C 116.393 68.400,116.854 68.059,116.987 67.642 C 117.134 67.178,117.750 66.786,118.575 66.631 C 119.316 66.492,120.024 66.113,120.149 65.789 C 120.273 65.465,120.741 65.200,121.187 65.200 C 121.634 65.200,122.000 65.020,122.000 64.800 C 122.000 64.580,122.270 64.400,122.600 64.400 C 122.930 64.400,123.200 64.240,123.200 64.043 C 123.200 63.847,123.650 63.574,124.200 63.436 C 124.750 63.298,125.200 63.008,125.200 62.792 C 125.200 62.577,125.470 62.400,125.800 62.400 C 126.130 62.400,126.400 62.228,126.400 62.018 C 126.400 61.808,127.030 61.518,127.800 61.374 C 128.570 61.229,129.200 60.965,129.200 60.787 C 129.200 60.609,129.740 60.345,130.400 60.200 C 131.060 60.055,131.600 59.771,131.600 59.568 C 131.600 59.366,131.960 59.200,132.400 59.200 C 132.840 59.200,133.200 59.034,133.200 58.832 C 133.200 58.629,133.740 58.345,134.400 58.200 C 135.060 58.055,135.600 57.771,135.600 57.568 C 135.600 57.366,136.050 57.200,136.600 57.200 C 137.150 57.200,137.600 57.034,137.600 56.832 C 137.600 56.629,138.140 56.345,138.800 56.200 C 139.460 56.055,140.000 55.771,140.000 55.568 C 140.000 55.366,140.450 55.200,141.000 55.200 C 141.550 55.200,142.000 55.031,142.000 54.825 C 142.000 54.618,142.810 54.328,143.800 54.179 C 144.790 54.031,145.600 53.752,145.600 53.559 C 145.600 53.367,146.320 53.094,147.200 52.954 C 148.080 52.813,148.800 52.541,148.800 52.349 C 148.800 52.157,149.250 52.000,149.800 52.000 C 150.350 52.000,150.800 51.840,150.800 51.645 C 150.800 51.450,151.610 51.169,152.600 51.021 C 153.590 50.872,154.400 50.582,154.400 50.375 C 154.400 50.169,155.030 50.000,155.800 50.000 C 156.570 50.000,157.200 49.833,157.200 49.629 C 157.200 49.425,158.190 49.134,159.400 48.983 C 160.610 48.832,161.600 48.549,161.600 48.354 C 161.600 48.159,162.215 48.000,162.967 48.000 C 163.718 48.000,164.393 47.825,164.467 47.611 C 164.540 47.397,165.905 47.101,167.500 46.954 C 169.095 46.806,170.400 46.548,170.400 46.380 C 170.400 46.212,172.110 45.946,174.200 45.790 C 176.290 45.633,178.000 45.346,178.000 45.152 C 178.000 44.959,179.065 44.800,180.367 44.800 C 181.904 44.800,182.792 44.625,182.900 44.300 C 183.143 43.570,217.657 43.570,217.900 44.300 C 218.003 44.610,218.817 44.800,220.039 44.800 C 221.123 44.800,222.323 44.972,222.705 45.182 C 223.087 45.392,224.975 45.678,226.900 45.818 C 228.825 45.958,230.400 46.215,230.400 46.389 C 230.400 46.563,231.750 46.833,233.400 46.987 C 235.050 47.142,236.400 47.433,236.400 47.634 C 236.400 47.835,236.940 48.000,237.600 48.000 C 238.260 48.000,238.800 48.157,238.800 48.348 C 238.800 48.540,239.880 48.819,241.200 48.968 C 242.520 49.118,243.600 49.411,243.600 49.620 C 243.600 49.829,244.140 50.000,244.800 50.000 C 245.460 50.000,246.000 50.163,246.000 50.362 C 246.000 50.562,246.900 50.849,248.000 51.000 C 249.100 51.151,250.000 51.438,250.000 51.638 C 250.000 51.837,250.450 52.000,251.000 52.000 C 251.550 52.000,252.000 52.157,252.000 52.349 C 252.000 52.541,252.720 52.813,253.600 52.954 C 254.480 53.094,255.200 53.364,255.200 53.554 C 255.200 53.743,255.920 54.013,256.800 54.154 C 257.680 54.294,258.400 54.587,258.400 54.805 C 258.400 55.022,258.850 55.200,259.400 55.200 C 259.950 55.200,260.400 55.364,260.400 55.565 C 260.400 55.766,261.120 56.051,262.000 56.200 C 262.880 56.349,263.600 56.634,263.600 56.835 C 263.600 57.036,263.960 57.200,264.400 57.200 C 264.840 57.200,265.200 57.366,265.200 57.568 C 265.200 57.771,265.740 58.055,266.400 58.200 C 267.060 58.345,267.600 58.587,267.600 58.737 C 267.600 59.035,270.557 60.400,271.203 60.400 C 271.421 60.400,271.600 60.572,271.600 60.782 C 271.600 60.992,272.230 61.282,273.000 61.426 C 273.770 61.571,274.400 61.849,274.400 62.045 C 274.400 62.240,274.670 62.400,275.000 62.400 C 275.330 62.400,275.600 62.560,275.600 62.757 C 275.600 62.953,276.050 63.226,276.600 63.364 C 277.150 63.502,277.600 63.792,277.600 64.008 C 277.600 64.223,277.870 64.400,278.200 64.400 C 278.530 64.400,278.800 64.580,278.800 64.800 C 278.800 65.020,279.057 65.200,279.371 65.200 C 279.686 65.200,280.189 65.446,280.490 65.747 C 280.791 66.048,281.479 66.434,282.019 66.604 C 282.558 66.775,283.270 67.223,283.600 67.600 C 283.930 67.977,284.605 68.413,285.100 68.570 C 285.595 68.726,286.000 69.022,286.000 69.227 C 286.000 69.432,286.270 69.600,286.600 69.600 C 286.930 69.600,287.200 69.768,287.200 69.973 C 287.200 70.178,287.605 70.474,288.100 70.630 C 288.595 70.787,289.270 71.223,289.600 71.600 C 289.930 71.977,290.605 72.413,291.100 72.570 C 291.595 72.726,292.000 73.022,292.000 73.227 C 292.000 73.432,292.360 73.600,292.800 73.600 C 293.240 73.600,293.600 73.432,293.600 73.227 C 293.600 73.022,293.960 72.740,294.400 72.600 C 294.840 72.460,295.200 72.023,295.200 71.629 C 295.200 71.235,295.650 70.574,296.200 70.161 C 296.750 69.748,297.200 69.191,297.200 68.923 C 297.200 68.655,297.614 68.023,298.119 67.517 C 298.625 67.012,299.159 66.283,299.307 65.899 C 299.454 65.515,299.761 65.200,299.987 65.200 C 300.214 65.200,300.400 64.865,300.400 64.456 C 300.400 64.047,300.839 63.382,301.376 62.979 C 301.913 62.576,302.453 61.843,302.577 61.350 C 302.701 60.857,303.161 60.339,303.601 60.200 C 304.042 60.060,304.400 59.594,304.400 59.160 C 304.400 58.728,304.670 58.271,305.000 58.145 C 305.330 58.018,305.600 57.655,305.600 57.338 C 305.600 57.021,306.050 56.345,306.600 55.835 C 307.598 54.911,308.002 52.800,307.182 52.800 C 306.952 52.800,306.314 52.350,305.764 51.800 C 305.214 51.250,304.568 50.800,304.329 50.800 C 304.090 50.800,303.603 50.466,303.247 50.057 C 302.891 49.649,302.195 49.187,301.700 49.030 C 301.205 48.874,300.800 48.578,300.800 48.373 C 300.800 48.168,300.524 48.000,300.187 48.000 C 299.851 48.000,299.471 47.730,299.345 47.400 C 299.218 47.070,298.774 46.800,298.357 46.800 C 297.941 46.800,297.600 46.640,297.600 46.443 C 297.600 46.247,297.150 45.974,296.600 45.836 C 296.050 45.698,295.600 45.408,295.600 45.192 C 295.600 44.977,295.330 44.800,295.000 44.800 C 294.670 44.800,294.400 44.623,294.400 44.408 C 294.400 44.192,293.950 43.902,293.400 43.764 C 292.850 43.626,292.400 43.353,292.400 43.157 C 292.400 42.960,292.130 42.800,291.800 42.800 C 291.470 42.800,291.200 42.640,291.200 42.443 C 291.200 42.247,290.750 41.974,290.200 41.836 C 289.650 41.698,289.200 41.422,289.200 41.224 C 289.200 41.026,288.660 40.745,288.000 40.600 C 287.340 40.455,286.800 40.171,286.800 39.968 C 286.800 39.766,286.440 39.600,286.000 39.600 C 285.560 39.600,285.200 39.434,285.200 39.232 C 285.200 39.029,284.660 38.745,284.000 38.600 C 283.340 38.455,282.800 38.171,282.800 37.968 C 282.800 37.766,282.440 37.600,282.000 37.600 C 281.560 37.600,281.200 37.434,281.200 37.232 C 281.200 37.029,280.660 36.745,280.000 36.600 C 279.340 36.455,278.800 36.179,278.800 35.986 C 278.800 35.794,278.170 35.518,277.400 35.374 C 276.630 35.229,276.000 34.951,276.000 34.755 C 276.000 34.560,275.730 34.400,275.400 34.400 C 275.070 34.400,274.800 34.243,274.800 34.051 C 274.800 33.859,274.080 33.587,273.200 33.446 C 272.320 33.306,271.600 33.013,271.600 32.795 C 271.600 32.578,271.330 32.400,271.000 32.400 C 270.670 32.400,270.400 32.240,270.400 32.045 C 270.400 31.850,269.590 31.569,268.600 31.421 C 267.610 31.272,266.800 30.982,266.800 30.775 C 266.800 30.569,266.451 30.400,266.024 30.400 C 265.597 30.400,265.146 30.236,265.022 30.035 C 264.897 29.834,264.077 29.548,263.198 29.400 C 262.319 29.251,261.600 28.977,261.600 28.789 C 261.600 28.602,260.790 28.328,259.800 28.179 C 258.810 28.031,258.000 27.750,258.000 27.555 C 258.000 27.360,257.550 27.200,257.000 27.200 C 256.450 27.200,256.000 27.043,256.000 26.852 C 256.000 26.660,254.920 26.381,253.600 26.232 C 252.280 26.082,251.200 25.789,251.200 25.580 C 251.200 25.371,250.660 25.200,250.000 25.200 C 249.340 25.200,248.800 25.029,248.800 24.820 C 248.800 24.611,247.720 24.318,246.400 24.168 C 245.080 24.019,244.000 23.740,244.000 23.548 C 244.000 23.357,243.295 23.200,242.433 23.200 C 241.572 23.200,240.807 23.025,240.733 22.811 C 240.660 22.597,239.295 22.301,237.700 22.154 C 236.105 22.006,234.800 21.748,234.800 21.580 C 234.800 21.412,233.090 21.146,231.000 20.990 C 228.910 20.833,227.200 20.546,227.200 20.352 C 227.200 20.159,226.045 20.000,224.633 20.000 C 223.012 20.000,222.009 19.826,221.909 19.526 C 221.751 19.052,191.242 18.700,182.500 19.072 M344.200 94.186 C 343.760 94.723,343.110 95.171,342.756 95.182 C 342.402 95.192,341.782 95.639,341.379 96.176 C 340.976 96.713,340.231 97.256,339.723 97.384 C 339.215 97.511,338.800 97.792,338.800 98.008 C 338.800 98.223,338.596 98.400,338.346 98.400 C 338.096 98.400,337.475 98.850,336.965 99.400 C 336.455 99.950,335.927 100.400,335.791 100.400 C 335.654 100.400,335.292 100.625,334.985 100.900 C 333.725 102.030,333.298 102.315,332.469 102.578 C 331.991 102.730,331.600 103.022,331.600 103.227 C 331.600 103.432,331.396 103.600,331.146 103.600 C 330.896 103.600,330.275 104.050,329.765 104.600 C 329.255 105.150,328.727 105.600,328.591 105.600 C 328.454 105.600,328.086 105.857,327.771 106.171 C 327.122 106.821,326.993 108.800,327.600 108.800 C 327.820 108.800,328.000 109.042,328.000 109.339 C 328.000 109.635,328.360 110.293,328.800 110.800 C 329.240 111.307,329.600 111.953,329.600 112.234 C 329.600 112.516,329.960 112.860,330.400 113.000 C 330.842 113.140,331.200 113.605,331.200 114.040 C 331.200 114.472,331.470 114.929,331.800 115.055 C 332.130 115.182,332.400 115.626,332.400 116.043 C 332.400 116.459,332.560 116.800,332.757 116.800 C 332.953 116.800,333.226 117.250,333.364 117.800 C 333.502 118.350,333.792 118.800,334.008 118.800 C 334.223 118.800,334.400 119.070,334.400 119.400 C 334.400 119.730,334.560 120.000,334.757 120.000 C 334.953 120.000,335.226 120.450,335.364 121.000 C 335.502 121.550,335.778 122.000,335.976 122.000 C 336.174 122.000,336.455 122.540,336.600 123.200 C 336.745 123.860,337.029 124.400,337.232 124.400 C 337.434 124.400,337.600 124.741,337.600 125.157 C 337.600 125.574,337.870 126.018,338.200 126.145 C 338.530 126.271,338.800 126.651,338.800 126.987 C 338.800 127.324,338.980 127.600,339.200 127.600 C 339.420 127.600,339.600 127.960,339.600 128.400 C 339.600 128.840,339.766 129.200,339.968 129.200 C 340.171 129.200,340.455 129.740,340.600 130.400 C 340.745 131.060,341.009 131.600,341.187 131.600 C 341.365 131.600,341.629 132.230,341.774 133.000 C 341.918 133.770,342.208 134.400,342.418 134.400 C 342.628 134.400,342.800 134.850,342.800 135.400 C 342.800 135.950,342.966 136.400,343.168 136.400 C 343.371 136.400,343.655 136.940,343.800 137.600 C 343.945 138.260,344.229 138.800,344.432 138.800 C 344.634 138.800,344.800 139.250,344.800 139.800 C 344.800 140.350,344.978 140.800,345.195 140.800 C 345.413 140.800,345.706 141.520,345.846 142.400 C 345.987 143.280,346.259 144.000,346.451 144.000 C 346.643 144.000,346.800 144.360,346.800 144.800 C 346.800 145.240,346.969 145.600,347.175 145.600 C 347.382 145.600,347.672 146.410,347.821 147.400 C 347.969 148.390,348.250 149.200,348.445 149.200 C 348.640 149.200,348.800 149.545,348.800 149.967 C 348.800 151.600,349.235 152.000,351.009 152.000 C 351.958 152.000,352.794 151.817,352.869 151.593 C 352.944 151.369,353.949 151.074,355.102 150.937 C 356.256 150.800,357.200 150.534,357.200 150.344 C 357.200 150.155,357.650 150.000,358.200 150.000 C 358.750 150.000,359.200 149.837,359.200 149.638 C 359.200 149.438,360.100 149.151,361.200 149.000 C 362.300 148.849,363.200 148.562,363.200 148.362 C 363.200 148.163,363.650 148.000,364.200 148.000 C 364.750 148.000,365.200 147.831,365.200 147.625 C 365.200 147.418,366.010 147.128,367.000 146.979 C 367.990 146.831,368.800 146.566,368.800 146.392 C 368.800 146.218,369.724 145.948,370.854 145.793 L 372.908 145.510 372.670 142.660 C 372.538 141.093,372.244 139.748,372.015 139.672 C 371.787 139.596,371.600 139.098,371.600 138.567 C 371.600 138.035,371.422 137.600,371.205 137.600 C 370.987 137.600,370.694 136.880,370.554 136.000 C 370.413 135.120,370.141 134.400,369.949 134.400 C 369.757 134.400,369.600 134.130,369.600 133.800 C 369.600 133.470,369.440 133.200,369.245 133.200 C 369.050 133.200,368.769 132.390,368.621 131.400 C 368.472 130.410,368.182 129.600,367.975 129.600 C 367.769 129.600,367.600 129.240,367.600 128.800 C 367.600 128.360,367.440 128.000,367.245 128.000 C 367.049 128.000,366.771 127.370,366.626 126.600 C 366.482 125.830,366.194 125.200,365.987 125.200 C 365.779 125.200,365.494 124.480,365.354 123.600 C 365.213 122.720,364.941 122.000,364.749 122.000 C 364.557 122.000,364.400 121.730,364.400 121.400 C 364.400 121.070,364.240 120.800,364.045 120.800 C 363.849 120.800,363.571 120.170,363.426 119.400 C 363.282 118.630,362.992 118.000,362.782 118.000 C 362.572 118.000,362.400 117.730,362.400 117.400 C 362.400 117.070,362.228 116.800,362.018 116.800 C 361.808 116.800,361.520 116.182,361.379 115.428 C 361.237 114.673,360.869 113.959,360.561 113.840 C 360.252 113.722,360.000 113.259,360.000 112.813 C 360.000 112.366,359.820 112.000,359.600 112.000 C 359.380 112.000,359.200 111.730,359.200 111.400 C 359.200 111.070,359.040 110.800,358.843 110.800 C 358.647 110.800,358.365 110.316,358.217 109.724 C 358.068 109.132,357.599 108.346,357.174 107.977 C 356.749 107.609,356.290 106.749,356.153 106.066 C 356.010 105.349,355.587 104.723,355.152 104.585 C 354.739 104.454,354.400 103.993,354.400 103.560 C 354.400 103.128,354.146 102.678,353.836 102.559 C 353.526 102.439,353.163 101.905,353.028 101.371 C 352.894 100.837,352.608 100.400,352.392 100.400 C 352.177 100.400,352.000 100.130,352.000 99.800 C 352.000 99.470,351.832 99.200,351.627 99.200 C 351.422 99.200,351.126 98.795,350.970 98.300 C 350.813 97.805,350.377 97.130,350.000 96.800 C 349.623 96.470,349.187 95.795,349.030 95.300 C 348.874 94.805,348.578 94.400,348.373 94.400 C 348.168 94.400,348.000 94.130,348.000 93.800 C 348.000 92.741,345.145 93.031,344.200 94.186 M199.600 153.484 L 199.600 197.489 198.613 197.300 C 198.070 197.197,197.518 196.772,197.386 196.356 C 197.254 195.940,196.838 195.600,196.462 195.600 C 196.086 195.600,195.470 195.240,195.093 194.800 C 194.716 194.360,194.179 194.000,193.899 194.000 C 193.619 194.000,193.052 193.550,192.639 193.000 C 192.226 192.450,191.565 192.000,191.171 192.000 C 190.777 192.000,190.340 191.640,190.200 191.200 C 190.060 190.760,189.638 190.400,189.262 190.400 C 188.886 190.400,188.270 190.040,187.893 189.600 C 187.516 189.160,186.979 188.800,186.699 188.800 C 186.419 188.800,185.852 188.350,185.439 187.800 C 185.026 187.250,184.365 186.800,183.971 186.800 C 183.577 186.800,183.140 186.440,183.000 186.000 C 182.860 185.560,182.423 185.200,182.029 185.200 C 181.635 185.200,180.974 184.750,180.561 184.200 C 180.148 183.650,179.596 183.200,179.334 183.200 C 179.072 183.200,178.611 182.954,178.310 182.653 C 178.009 182.352,177.375 181.983,176.902 181.832 C 176.428 181.682,175.930 181.208,175.794 180.780 C 175.657 180.351,175.223 180.000,174.829 180.000 C 174.435 180.000,173.782 179.561,173.379 179.024 C 172.976 178.487,172.231 177.944,171.723 177.816 C 171.215 177.689,170.800 177.408,170.800 177.192 C 170.800 176.977,170.596 176.800,170.346 176.800 C 170.096 176.800,169.475 176.350,168.965 175.800 C 168.455 175.250,167.785 174.800,167.475 174.800 C 167.165 174.800,166.582 174.361,166.179 173.824 C 165.776 173.287,165.031 172.744,164.523 172.616 C 164.015 172.489,163.600 172.208,163.600 171.992 C 163.600 171.777,163.396 171.600,163.146 171.600 C 162.896 171.600,162.275 171.150,161.765 170.600 C 161.255 170.050,160.693 169.600,160.515 169.600 C 160.337 169.600,159.730 169.172,159.167 168.649 C 158.603 168.127,157.750 167.574,157.271 167.422 C 156.792 167.270,156.400 166.978,156.400 166.773 C 156.400 166.568,156.196 166.400,155.946 166.400 C 155.696 166.400,155.075 165.950,154.565 165.400 C 154.055 164.850,153.493 164.400,153.315 164.400 C 153.137 164.400,152.530 163.972,151.967 163.449 C 151.403 162.927,150.550 162.374,150.071 162.222 C 149.592 162.070,149.200 161.778,149.200 161.573 C 149.200 161.368,148.996 161.200,148.746 161.200 C 148.496 161.200,147.875 160.750,147.365 160.200 C 146.855 159.650,146.327 159.200,146.191 159.200 C 146.054 159.200,145.692 158.975,145.385 158.700 C 144.062 157.513,143.609 157.200,143.217 157.200 C 142.988 157.200,142.800 157.032,142.800 156.827 C 142.800 156.622,142.395 156.327,141.900 156.171 C 141.405 156.016,140.604 155.464,140.119 154.944 C 139.635 154.425,139.127 154.000,138.991 154.000 C 138.854 154.000,138.492 153.775,138.185 153.500 C 136.862 152.313,136.409 152.000,136.017 152.000 C 135.788 152.000,135.600 151.832,135.600 151.627 C 135.600 151.422,135.202 151.128,134.715 150.973 C 134.229 150.819,133.495 150.266,133.086 149.746 C 132.677 149.226,132.162 148.800,131.942 148.800 C 131.723 148.800,131.292 148.575,130.985 148.300 C 129.512 146.979,129.139 146.800,127.860 146.800 C 126.729 146.800,126.443 146.976,126.236 147.800 C 126.098 148.350,125.808 148.800,125.592 148.800 C 125.377 148.800,125.200 149.070,125.200 149.400 C 125.200 149.730,125.032 150.000,124.827 150.000 C 124.622 150.000,124.326 150.405,124.170 150.900 C 124.013 151.395,123.563 152.081,123.170 152.424 C 122.776 152.767,122.332 153.532,122.183 154.124 C 122.035 154.716,121.772 155.200,121.600 155.200 C 121.428 155.200,121.174 155.650,121.036 156.200 C 120.898 156.750,120.608 157.200,120.392 157.200 C 120.177 157.200,120.000 157.470,120.000 157.800 C 120.000 158.130,119.831 158.400,119.625 158.400 C 119.418 158.400,119.128 159.210,118.979 160.200 C 118.831 161.190,118.550 162.000,118.355 162.000 C 118.160 162.000,118.000 162.270,118.000 162.600 C 118.000 162.930,117.834 163.200,117.632 163.200 C 117.429 163.200,117.145 163.740,117.000 164.400 C 116.855 165.060,116.588 165.600,116.406 165.600 C 116.224 165.600,115.951 166.500,115.800 167.600 C 115.649 168.700,115.362 169.600,115.162 169.600 C 114.963 169.600,114.800 170.050,114.800 170.600 C 114.800 171.150,114.637 171.600,114.438 171.600 C 114.238 171.600,113.951 172.500,113.800 173.600 C 113.649 174.700,113.362 175.600,113.162 175.600 C 112.963 175.600,112.800 176.140,112.800 176.800 C 112.800 177.460,112.641 178.000,112.447 178.000 C 112.253 178.000,111.967 179.530,111.811 181.400 C 111.656 183.270,111.364 184.800,111.164 184.800 C 110.964 184.800,110.800 185.790,110.800 187.000 C 110.800 188.210,110.620 189.200,110.400 189.200 C 110.143 189.200,110.000 193.067,110.000 200.000 C 110.000 206.933,110.143 210.800,110.400 210.800 C 110.620 210.800,110.800 211.790,110.800 213.000 C 110.800 214.210,110.959 215.200,111.153 215.200 C 111.347 215.200,111.633 216.730,111.789 218.600 C 111.944 220.470,112.236 222.000,112.436 222.000 C 112.636 222.000,112.800 222.540,112.800 223.200 C 112.800 223.860,112.963 224.400,113.162 224.400 C 113.362 224.400,113.649 225.300,113.800 226.400 C 113.951 227.500,114.238 228.400,114.438 228.400 C 114.637 228.400,114.800 228.850,114.800 229.400 C 114.800 229.950,114.963 230.400,115.162 230.400 C 115.362 230.400,115.649 231.300,115.800 232.400 C 115.951 233.500,116.224 234.400,116.406 234.400 C 116.588 234.400,116.855 234.940,117.000 235.600 C 117.145 236.260,117.429 236.800,117.632 236.800 C 117.834 236.800,118.000 237.250,118.000 237.800 C 118.000 238.350,118.172 238.800,118.382 238.800 C 118.592 238.800,118.882 239.430,119.026 240.200 C 119.171 240.970,119.449 241.600,119.645 241.600 C 119.840 241.600,120.000 241.870,120.000 242.200 C 120.000 242.530,120.177 242.800,120.392 242.800 C 120.608 242.800,120.898 243.250,121.036 243.800 C 121.174 244.350,121.428 244.800,121.600 244.800 C 121.772 244.800,122.035 245.284,122.183 245.876 C 122.332 246.468,122.776 247.233,123.170 247.576 C 123.563 247.919,124.013 248.605,124.170 249.100 C 124.326 249.595,124.622 250.000,124.827 250.000 C 125.032 250.000,125.200 250.270,125.200 250.600 C 125.200 250.930,125.377 251.200,125.592 251.200 C 125.808 251.200,126.098 251.650,126.236 252.200 C 126.588 253.602,129.133 253.630,130.516 252.248 C 131.039 251.724,131.858 251.172,132.334 251.021 C 132.810 250.870,133.200 250.578,133.200 250.373 C 133.200 250.168,133.389 250.000,133.619 250.000 C 133.850 250.000,134.455 249.550,134.965 249.000 C 135.475 248.450,136.019 248.000,136.174 248.000 C 136.330 248.000,136.708 247.775,137.015 247.500 C 138.151 246.481,138.617 246.153,139.300 245.892 C 139.685 245.745,140.000 245.439,140.000 245.213 C 140.000 244.986,140.279 244.800,140.619 244.800 C 140.960 244.800,141.655 244.350,142.165 243.800 C 142.675 243.250,143.219 242.800,143.374 242.800 C 143.530 242.800,143.908 242.575,144.215 242.300 C 145.518 241.131,145.987 240.800,146.340 240.800 C 146.546 240.800,146.818 240.530,146.945 240.200 C 147.071 239.870,147.459 239.600,147.807 239.600 C 148.154 239.600,148.855 239.150,149.365 238.600 C 149.875 238.050,150.419 237.600,150.574 237.600 C 150.730 237.600,151.108 237.375,151.415 237.100 C 152.718 235.931,153.187 235.600,153.540 235.600 C 153.746 235.600,154.018 235.330,154.145 235.000 C 154.271 234.670,154.659 234.400,155.007 234.400 C 155.354 234.400,156.055 233.950,156.565 233.400 C 157.075 232.850,157.619 232.400,157.774 232.400 C 157.930 232.400,158.308 232.175,158.615 231.900 C 159.918 230.731,160.387 230.400,160.740 230.400 C 160.946 230.400,161.218 230.130,161.345 229.800 C 161.471 229.470,161.928 229.200,162.360 229.200 C 162.793 229.200,163.257 228.849,163.394 228.420 C 163.530 227.992,164.028 227.518,164.502 227.368 C 164.975 227.217,165.609 226.848,165.910 226.547 C 166.211 226.246,166.672 226.000,166.934 226.000 C 167.196 226.000,167.748 225.550,168.161 225.000 C 168.574 224.450,169.235 224.000,169.629 224.000 C 170.023 224.000,170.457 223.649,170.594 223.220 C 170.730 222.792,171.237 222.316,171.720 222.163 C 172.204 222.011,172.870 221.577,173.200 221.200 C 173.530 220.823,174.188 220.392,174.663 220.242 C 175.138 220.092,175.627 219.706,175.750 219.385 C 175.874 219.063,176.328 218.800,176.760 218.800 C 177.193 218.800,177.657 218.449,177.794 218.020 C 177.930 217.592,178.437 217.116,178.920 216.963 C 179.404 216.811,180.070 216.377,180.400 216.000 C 180.730 215.623,181.396 215.189,181.880 215.037 C 182.363 214.884,182.870 214.408,183.006 213.980 C 183.143 213.551,183.607 213.200,184.040 213.200 C 184.472 213.200,184.926 212.937,185.050 212.615 C 185.173 212.294,185.662 211.908,186.137 211.758 C 186.612 211.608,187.270 211.177,187.600 210.800 C 187.930 210.423,188.596 209.989,189.080 209.837 C 189.563 209.684,190.070 209.208,190.206 208.780 C 190.343 208.351,190.762 208.000,191.138 208.000 C 191.514 208.000,192.130 207.640,192.507 207.200 C 192.884 206.760,193.464 206.400,193.796 206.400 C 194.620 206.400,194.562 206.602,193.400 207.764 C 192.850 208.314,192.400 208.957,192.400 209.194 C 192.400 209.431,192.130 209.729,191.800 209.855 C 191.470 209.982,191.200 210.345,191.200 210.662 C 191.200 210.979,190.750 211.655,190.200 212.165 C 189.650 212.675,189.200 213.288,189.200 213.528 C 189.200 213.767,188.750 214.414,188.200 214.964 C 187.650 215.514,187.200 216.157,187.200 216.394 C 187.200 216.631,186.930 216.929,186.600 217.055 C 186.270 217.182,186.000 217.545,186.000 217.862 C 186.000 218.179,185.550 218.855,185.000 219.365 C 184.450 219.875,184.000 220.430,184.000 220.600 C 184.000 220.770,183.550 221.325,183.000 221.835 C 182.450 222.345,182.000 223.046,182.000 223.393 C 182.000 223.741,181.730 224.129,181.400 224.255 C 181.070 224.382,180.800 224.745,180.800 225.062 C 180.800 225.379,180.350 226.055,179.800 226.565 C 179.250 227.075,178.800 227.630,178.800 227.800 C 178.800 227.970,178.350 228.525,177.800 229.035 C 177.250 229.545,176.800 230.221,176.800 230.538 C 176.800 230.855,176.530 231.218,176.200 231.345 C 175.870 231.471,175.600 231.859,175.600 232.207 C 175.600 232.554,175.150 233.255,174.600 233.765 C 174.050 234.275,173.600 234.830,173.600 235.000 C 173.600 235.170,173.150 235.725,172.600 236.235 C 172.050 236.745,171.600 237.421,171.600 237.738 C 171.600 238.055,171.330 238.418,171.000 238.545 C 170.670 238.671,170.400 239.128,170.400 239.560 C 170.400 239.993,170.049 240.457,169.620 240.594 C 169.192 240.730,168.717 241.237,168.565 241.720 C 168.413 242.204,167.864 242.996,167.344 243.481 C 166.825 243.965,166.400 244.621,166.400 244.938 C 166.400 245.255,166.130 245.618,165.800 245.745 C 165.470 245.871,165.200 246.328,165.200 246.760 C 165.200 247.193,164.849 247.657,164.420 247.794 C 163.992 247.930,163.517 248.437,163.365 248.920 C 163.213 249.404,162.664 250.196,162.144 250.681 C 161.625 251.165,161.200 251.821,161.200 252.138 C 161.200 252.455,160.930 252.818,160.600 252.945 C 160.270 253.071,160.000 253.528,160.000 253.960 C 160.000 254.394,159.642 254.860,159.201 255.000 C 158.761 255.139,158.301 255.657,158.177 256.150 C 158.053 256.643,157.513 257.376,156.976 257.779 C 156.439 258.182,156.000 258.828,156.000 259.213 C 156.000 259.599,155.730 260.018,155.400 260.145 C 155.070 260.271,154.800 260.728,154.800 261.160 C 154.800 261.594,154.442 262.060,154.001 262.200 C 153.561 262.339,153.101 262.857,152.977 263.350 C 152.853 263.843,152.313 264.576,151.776 264.979 C 151.239 265.382,150.800 266.035,150.800 266.429 C 150.800 266.823,150.440 267.260,150.000 267.400 C 149.560 267.540,149.200 267.884,149.200 268.166 C 149.200 268.447,148.840 269.093,148.400 269.600 C 147.960 270.107,147.600 270.765,147.600 271.061 C 147.600 271.358,147.420 271.600,147.200 271.600 C 146.279 271.600,146.800 273.585,147.786 273.832 C 148.328 273.968,148.880 274.422,149.013 274.840 C 149.145 275.258,149.607 275.600,150.040 275.600 C 150.472 275.600,150.929 275.870,151.055 276.200 C 151.182 276.530,151.626 276.800,152.043 276.800 C 152.459 276.800,152.800 276.960,152.800 277.157 C 152.800 277.353,153.250 277.626,153.800 277.764 C 154.350 277.902,154.800 278.192,154.800 278.408 C 154.800 278.623,155.070 278.800,155.400 278.800 C 155.730 278.800,156.000 278.966,156.000 279.168 C 156.000 279.371,156.540 279.655,157.200 279.800 C 157.860 279.945,158.400 280.209,158.400 280.387 C 158.400 280.565,159.030 280.829,159.800 280.974 C 160.570 281.118,161.200 281.408,161.200 281.618 C 161.200 281.828,161.470 282.000,161.800 282.000 C 162.130 282.000,162.400 282.172,162.400 282.382 C 162.400 282.592,163.030 282.882,163.800 283.026 C 164.570 283.171,165.200 283.449,165.200 283.645 C 165.200 283.840,165.650 284.000,166.200 284.000 C 166.750 284.000,167.200 284.164,167.200 284.365 C 167.200 284.566,167.920 284.851,168.800 285.000 C 169.680 285.149,170.400 285.434,170.400 285.635 C 170.400 285.836,170.850 286.000,171.400 286.000 C 171.950 286.000,172.400 286.159,172.400 286.354 C 172.400 286.549,173.390 286.832,174.600 286.983 C 175.810 287.134,176.800 287.409,176.800 287.595 C 176.800 287.780,178.150 288.058,179.800 288.213 C 181.450 288.367,182.800 288.653,182.800 288.847 C 182.800 289.041,183.685 289.200,184.767 289.200 C 185.848 289.200,186.793 289.372,186.867 289.583 C 186.940 289.793,190.105 290.091,193.900 290.244 L 200.800 290.522 200.812 245.961 C 200.820 215.495,200.953 201.621,201.232 202.100 C 201.456 202.485,201.861 202.800,202.132 202.800 C 202.402 202.800,202.883 203.160,203.200 203.600 C 203.517 204.040,203.999 204.400,204.270 204.400 C 204.542 204.400,205.192 204.828,205.716 205.352 C 206.239 205.876,207.041 206.423,207.497 206.567 C 207.953 206.712,208.427 207.094,208.550 207.415 C 208.674 207.737,209.011 208.000,209.299 208.000 C 209.587 208.000,210.083 208.360,210.400 208.800 C 210.717 209.240,211.199 209.600,211.470 209.600 C 211.742 209.600,212.392 210.028,212.916 210.552 C 213.439 211.076,214.241 211.623,214.697 211.767 C 215.153 211.912,215.627 212.294,215.750 212.615 C 215.874 212.937,216.211 213.200,216.499 213.200 C 216.787 213.200,217.283 213.560,217.600 214.000 C 217.917 214.440,218.399 214.800,218.670 214.800 C 218.942 214.800,219.614 215.250,220.164 215.800 C 220.714 216.350,221.327 216.800,221.526 216.800 C 221.725 216.800,222.218 217.239,222.621 217.776 C 223.024 218.313,223.769 218.856,224.277 218.984 C 224.785 219.111,225.200 219.392,225.200 219.608 C 225.200 219.823,225.462 220.000,225.782 220.000 C 226.102 220.000,226.814 220.450,227.364 221.000 C 227.914 221.550,228.527 222.000,228.726 222.000 C 228.925 222.000,229.418 222.439,229.821 222.976 C 230.224 223.513,230.969 224.056,231.477 224.184 C 231.985 224.311,232.400 224.592,232.400 224.808 C 232.400 225.023,232.593 225.200,232.829 225.200 C 233.064 225.200,233.508 225.425,233.815 225.700 C 235.111 226.862,235.586 227.200,235.927 227.200 C 236.126 227.200,236.618 227.639,237.021 228.176 C 237.424 228.713,238.169 229.256,238.677 229.384 C 239.185 229.511,239.600 229.792,239.600 230.008 C 239.600 230.223,239.804 230.400,240.054 230.400 C 240.304 230.400,240.925 230.850,241.435 231.400 C 241.945 231.950,242.559 232.400,242.800 232.400 C 243.041 232.400,243.635 232.825,244.119 233.344 C 244.604 233.864,245.405 234.416,245.900 234.571 C 246.395 234.727,246.800 235.022,246.800 235.227 C 246.800 235.432,247.004 235.600,247.254 235.600 C 247.504 235.600,248.125 236.050,248.635 236.600 C 249.145 237.150,249.821 237.600,250.138 237.600 C 250.455 237.600,250.818 237.870,250.945 238.200 C 251.071 238.530,251.459 238.800,251.807 238.800 C 252.154 238.800,252.855 239.250,253.365 239.800 C 253.875 240.350,254.430 240.800,254.600 240.800 C 254.770 240.800,255.325 241.250,255.835 241.800 C 256.345 242.350,257.021 242.800,257.338 242.800 C 257.655 242.800,258.018 243.070,258.145 243.400 C 258.271 243.730,258.728 244.000,259.160 244.000 C 259.593 244.000,260.057 244.351,260.194 244.780 C 260.330 245.208,260.837 245.683,261.320 245.835 C 261.804 245.987,262.596 246.536,263.081 247.056 C 263.565 247.575,264.221 248.000,264.538 248.000 C 264.855 248.000,265.218 248.270,265.345 248.600 C 265.471 248.930,265.928 249.200,266.360 249.200 C 266.794 249.200,267.260 249.558,267.400 249.999 C 267.539 250.439,268.057 250.899,268.550 251.023 C 269.043 251.147,269.776 251.687,270.179 252.224 C 271.292 253.706,274.800 253.536,274.800 252.000 C 274.800 251.607,275.070 251.182,275.400 251.055 C 275.730 250.929,276.000 250.459,276.000 250.013 C 276.000 249.566,276.180 249.200,276.400 249.200 C 276.620 249.200,276.800 248.930,276.800 248.600 C 276.800 248.270,276.977 248.000,277.192 248.000 C 277.408 248.000,277.698 247.550,277.836 247.000 C 277.974 246.450,278.247 246.000,278.443 246.000 C 278.640 246.000,278.800 245.730,278.800 245.400 C 278.800 245.070,278.977 244.800,279.192 244.800 C 279.408 244.800,279.698 244.350,279.836 243.800 C 279.974 243.250,280.239 242.800,280.425 242.800 C 280.611 242.800,280.882 242.170,281.026 241.400 C 281.171 240.630,281.449 240.000,281.645 240.000 C 281.840 240.000,282.000 239.730,282.000 239.400 C 282.000 239.070,282.178 238.800,282.395 238.800 C 282.613 238.800,282.906 238.080,283.046 237.200 C 283.187 236.320,283.459 235.600,283.651 235.600 C 283.843 235.600,284.000 235.330,284.000 235.000 C 284.000 234.670,284.157 234.400,284.349 234.400 C 284.541 234.400,284.813 233.680,284.954 232.800 C 285.094 231.920,285.387 231.200,285.605 231.200 C 285.822 231.200,286.000 230.750,286.000 230.200 C 286.000 229.650,286.171 229.200,286.380 229.200 C 286.589 229.200,286.882 228.120,287.032 226.800 C 287.181 225.480,287.446 224.400,287.620 224.400 C 287.794 224.400,288.062 223.230,288.215 221.800 C 288.368 220.370,288.652 219.200,288.847 219.200 C 289.041 219.200,289.200 218.495,289.200 217.633 C 289.200 216.736,289.413 215.995,289.700 215.900 C 290.089 215.770,290.200 212.231,290.200 200.000 C 290.200 187.769,290.089 184.230,289.700 184.100 C 289.413 184.004,289.200 183.264,289.200 182.367 C 289.200 181.505,289.041 180.800,288.847 180.800 C 288.652 180.800,288.368 179.630,288.215 178.200 C 288.062 176.770,287.780 175.600,287.588 175.600 C 287.396 175.600,287.118 174.520,286.968 173.200 C 286.819 171.880,286.540 170.800,286.348 170.800 C 286.157 170.800,286.000 170.350,286.000 169.800 C 286.000 169.250,285.822 168.800,285.605 168.800 C 285.387 168.800,285.094 168.080,284.954 167.200 C 284.813 166.320,284.541 165.600,284.349 165.600 C 284.157 165.600,284.000 165.330,284.000 165.000 C 284.000 164.670,283.843 164.400,283.651 164.400 C 283.459 164.400,283.187 163.680,283.046 162.800 C 282.906 161.920,282.613 161.200,282.395 161.200 C 282.178 161.200,282.000 160.930,282.000 160.600 C 282.000 160.270,281.840 160.000,281.645 160.000 C 281.449 160.000,281.171 159.370,281.026 158.600 C 280.882 157.830,280.611 157.200,280.425 157.200 C 280.239 157.200,279.974 156.750,279.836 156.200 C 279.698 155.650,279.408 155.200,279.192 155.200 C 278.977 155.200,278.800 154.930,278.800 154.600 C 278.800 154.270,278.640 154.000,278.443 154.000 C 278.247 154.000,277.974 153.550,277.836 153.000 C 277.698 152.450,277.408 152.000,277.192 152.000 C 276.977 152.000,276.800 151.730,276.800 151.400 C 276.800 151.070,276.632 150.800,276.427 150.800 C 276.222 150.800,275.926 150.395,275.770 149.900 C 275.613 149.405,275.151 148.709,274.743 148.353 C 274.334 147.997,274.000 147.502,274.000 147.253 C 274.000 147.004,273.460 146.800,272.800 146.800 C 272.140 146.800,271.600 146.980,271.600 147.200 C 271.600 147.420,271.343 147.600,271.029 147.600 C 270.714 147.600,270.211 147.846,269.910 148.147 C 269.609 148.448,268.975 148.817,268.502 148.968 C 268.028 149.118,267.530 149.592,267.394 150.020 C 267.257 150.449,266.823 150.800,266.429 150.800 C 266.035 150.800,265.382 151.239,264.979 151.776 C 264.576 152.313,263.831 152.856,263.323 152.984 C 262.815 153.111,262.400 153.392,262.400 153.608 C 262.400 153.823,262.196 154.000,261.946 154.000 C 261.696 154.000,261.075 154.450,260.565 155.000 C 260.055 155.550,259.385 156.000,259.075 156.000 C 258.765 156.000,258.182 156.439,257.779 156.976 C 257.376 157.513,256.631 158.056,256.123 158.184 C 255.615 158.311,255.200 158.592,255.200 158.808 C 255.200 159.023,254.996 159.200,254.746 159.200 C 254.496 159.200,253.875 159.650,253.365 160.200 C 252.855 160.750,252.241 161.200,252.000 161.200 C 251.759 161.200,251.165 161.625,250.681 162.144 C 250.196 162.664,249.395 163.216,248.900 163.371 C 248.405 163.527,248.000 163.822,248.000 164.027 C 248.000 164.232,247.796 164.400,247.546 164.400 C 247.296 164.400,246.675 164.850,246.165 165.400 C 245.655 165.950,245.041 166.400,244.800 166.400 C 244.559 166.400,243.965 166.825,243.481 167.344 C 242.996 167.864,242.195 168.416,241.700 168.571 C 241.205 168.727,240.800 169.022,240.800 169.227 C 240.800 169.432,240.596 169.600,240.346 169.600 C 240.096 169.600,239.475 170.050,238.965 170.600 C 238.455 171.150,237.779 171.600,237.462 171.600 C 237.145 171.600,236.782 171.870,236.655 172.200 C 236.529 172.530,236.231 172.800,235.994 172.800 C 235.757 172.800,235.114 173.250,234.564 173.800 C 234.014 174.350,233.367 174.800,233.128 174.800 C 232.888 174.800,232.275 175.250,231.765 175.800 C 231.255 176.350,230.579 176.800,230.262 176.800 C 229.945 176.800,229.582 177.070,229.455 177.400 C 229.329 177.730,229.031 178.000,228.794 178.000 C 228.557 178.000,227.914 178.450,227.364 179.000 C 226.814 179.550,226.145 180.000,225.877 180.000 C 225.609 180.000,225.052 180.450,224.639 181.000 C 224.226 181.550,223.553 182.000,223.144 182.000 C 222.735 182.000,222.400 182.186,222.400 182.413 C 222.400 182.639,222.085 182.946,221.701 183.093 C 221.317 183.241,220.588 183.775,220.083 184.281 C 219.577 184.786,218.945 185.200,218.677 185.200 C 218.409 185.200,217.852 185.650,217.439 186.200 C 217.026 186.750,216.483 187.200,216.232 187.200 C 215.982 187.200,215.517 187.560,215.200 188.000 C 214.883 188.440,214.421 188.800,214.173 188.800 C 213.925 188.800,213.307 189.160,212.800 189.600 C 212.293 190.040,211.678 190.400,211.434 190.400 C 211.190 190.400,210.652 190.850,210.239 191.400 C 209.826 191.950,209.283 192.400,209.032 192.400 C 208.782 192.400,208.317 192.760,208.000 193.200 C 207.279 194.200,206.325 194.273,206.682 193.300 C 206.824 192.915,207.178 192.456,207.470 192.280 C 207.761 192.104,208.000 191.621,208.000 191.207 C 208.000 190.793,208.360 190.340,208.799 190.200 C 209.239 190.061,209.699 189.543,209.823 189.050 C 209.947 188.557,210.487 187.824,211.024 187.421 C 211.561 187.018,212.000 186.372,212.000 185.987 C 212.000 185.601,212.270 185.182,212.600 185.055 C 212.930 184.929,213.200 184.472,213.200 184.040 C 213.200 183.606,213.558 183.140,213.999 183.000 C 214.439 182.861,214.899 182.343,215.023 181.850 C 215.147 181.357,215.687 180.624,216.224 180.221 C 216.761 179.818,217.200 179.165,217.200 178.771 C 217.200 178.377,217.560 177.940,218.000 177.800 C 218.440 177.660,218.800 177.238,218.800 176.862 C 218.800 176.486,219.160 175.870,219.600 175.493 C 220.040 175.116,220.400 174.579,220.400 174.299 C 220.400 174.019,220.850 173.452,221.400 173.039 C 221.950 172.626,222.400 171.965,222.400 171.571 C 222.400 171.177,222.760 170.740,223.200 170.600 C 223.640 170.460,224.000 170.023,224.000 169.629 C 224.000 169.235,224.450 168.574,225.000 168.161 C 225.550 167.748,226.000 167.181,226.000 166.901 C 226.000 166.621,226.360 166.084,226.800 165.707 C 227.240 165.330,227.600 164.714,227.600 164.338 C 227.600 163.962,227.960 163.540,228.400 163.400 C 228.840 163.260,229.200 162.823,229.200 162.429 C 229.200 162.035,229.639 161.382,230.176 160.979 C 230.713 160.576,231.253 159.843,231.377 159.350 C 231.501 158.857,231.961 158.339,232.401 158.200 C 232.842 158.060,233.200 157.594,233.200 157.160 C 233.200 156.728,233.470 156.271,233.800 156.145 C 234.130 156.018,234.400 155.599,234.400 155.213 C 234.400 154.828,234.839 154.182,235.376 153.779 C 235.913 153.376,236.453 152.643,236.577 152.150 C 236.701 151.657,237.161 151.139,237.601 151.000 C 238.042 150.860,238.400 150.394,238.400 149.960 C 238.400 149.528,238.670 149.071,239.000 148.945 C 239.330 148.818,239.600 148.399,239.600 148.013 C 239.600 147.628,240.039 146.982,240.576 146.579 C 241.113 146.176,241.653 145.443,241.777 144.950 C 241.901 144.457,242.361 143.939,242.801 143.800 C 243.242 143.660,243.600 143.194,243.600 142.760 C 243.600 142.328,243.870 141.871,244.200 141.745 C 244.530 141.618,244.800 141.255,244.800 140.938 C 244.800 140.621,245.225 139.965,245.744 139.481 C 246.264 138.996,246.813 138.204,246.965 137.720 C 247.117 137.237,247.592 136.730,248.020 136.594 C 248.449 136.457,248.800 135.993,248.800 135.560 C 248.800 135.128,249.070 134.671,249.400 134.545 C 249.730 134.418,250.000 134.146,250.000 133.940 C 250.000 133.587,250.331 133.118,251.500 131.815 C 251.775 131.508,252.000 131.130,252.000 130.974 C 252.000 130.819,252.450 130.275,253.000 129.765 C 254.322 128.540,254.377 126.573,253.100 126.170 C 252.605 126.013,251.930 125.577,251.600 125.200 C 251.270 124.823,250.595 124.387,250.100 124.230 C 249.605 124.074,249.200 123.778,249.200 123.573 C 249.200 123.368,248.930 123.200,248.600 123.200 C 248.270 123.200,248.000 123.040,248.000 122.843 C 248.000 122.647,247.550 122.374,247.000 122.236 C 246.450 122.098,246.000 121.822,246.000 121.624 C 246.000 121.426,245.460 121.145,244.800 121.000 C 244.140 120.855,243.600 120.571,243.600 120.368 C 243.600 120.166,243.240 120.000,242.800 120.000 C 242.360 120.000,242.000 119.834,242.000 119.632 C 242.000 119.429,241.460 119.145,240.800 119.000 C 240.140 118.855,239.600 118.613,239.600 118.463 C 239.600 118.070,236.543 116.800,235.597 116.800 C 235.159 116.800,234.800 116.622,234.800 116.405 C 234.800 116.187,234.080 115.894,233.200 115.754 C 232.320 115.613,231.600 115.341,231.600 115.149 C 231.600 114.957,231.150 114.800,230.600 114.800 C 230.050 114.800,229.600 114.640,229.600 114.445 C 229.600 114.250,228.790 113.969,227.800 113.821 C 226.810 113.672,226.000 113.382,226.000 113.175 C 226.000 112.969,225.370 112.800,224.600 112.800 C 223.830 112.800,223.200 112.635,223.200 112.434 C 223.200 112.233,221.850 111.942,220.200 111.787 C 218.550 111.633,217.200 111.347,217.200 111.153 C 217.200 110.959,216.315 110.800,215.233 110.800 C 214.152 110.800,213.207 110.629,213.133 110.421 C 213.060 110.212,209.985 109.915,206.300 109.760 L 199.600 109.480 199.600 153.484 M48.000 248.362 C 48.000 248.562,47.100 248.849,46.000 249.000 C 44.900 249.151,44.000 249.438,44.000 249.638 C 44.000 249.837,43.550 250.000,43.000 250.000 C 42.450 250.000,42.000 250.169,42.000 250.375 C 42.000 250.582,41.190 250.872,40.200 251.021 C 39.210 251.169,38.400 251.450,38.400 251.645 C 38.400 251.840,37.950 252.000,37.400 252.000 C 36.850 252.000,36.400 252.171,36.400 252.380 C 36.400 252.589,35.320 252.882,34.000 253.032 C 32.680 253.181,31.600 253.460,31.600 253.652 C 31.600 253.843,31.150 254.000,30.600 254.000 C 30.050 254.000,29.600 254.180,29.600 254.400 C 29.600 254.620,29.214 254.800,28.742 254.800 C 27.808 254.800,27.857 260.019,28.795 260.332 C 29.018 260.406,29.314 261.172,29.452 262.034 C 29.590 262.895,29.859 263.600,30.051 263.600 C 30.243 263.600,30.400 264.050,30.400 264.600 C 30.400 265.150,30.578 265.600,30.795 265.600 C 31.013 265.600,31.306 266.320,31.446 267.200 C 31.587 268.080,31.859 268.800,32.051 268.800 C 32.243 268.800,32.400 269.160,32.400 269.600 C 32.400 270.040,32.557 270.400,32.749 270.400 C 32.941 270.400,33.213 271.120,33.354 272.000 C 33.494 272.880,33.787 273.600,34.005 273.600 C 34.222 273.600,34.400 273.870,34.400 274.200 C 34.400 274.530,34.578 274.800,34.795 274.800 C 35.013 274.800,35.306 275.520,35.446 276.400 C 35.587 277.280,35.839 278.000,36.007 278.000 C 36.174 278.000,36.429 278.630,36.574 279.400 C 36.718 280.170,37.008 280.800,37.218 280.800 C 37.428 280.800,37.600 281.070,37.600 281.400 C 37.600 281.730,37.772 282.000,37.982 282.000 C 38.192 282.000,38.481 282.624,38.624 283.386 C 38.778 284.209,39.175 284.865,39.600 285.000 C 40.025 285.135,40.422 285.791,40.576 286.614 C 40.719 287.376,40.989 288.000,41.175 288.000 C 41.361 288.000,41.635 288.484,41.783 289.076 C 41.932 289.668,42.376 290.433,42.770 290.776 C 43.163 291.119,43.627 291.850,43.800 292.400 C 43.973 292.950,44.448 293.691,44.856 294.046 C 45.265 294.402,45.710 295.251,45.847 295.934 C 45.990 296.651,46.413 297.277,46.848 297.415 C 47.261 297.546,47.600 298.007,47.600 298.440 C 47.600 298.872,47.854 299.322,48.164 299.441 C 48.474 299.561,48.837 300.095,48.972 300.629 C 49.106 301.163,49.392 301.600,49.608 301.600 C 49.823 301.600,50.000 301.870,50.000 302.200 C 50.000 302.530,50.168 302.800,50.373 302.800 C 50.578 302.800,50.874 303.205,51.030 303.700 C 51.187 304.195,51.649 304.891,52.057 305.247 C 52.466 305.603,52.800 306.098,52.800 306.347 C 52.800 307.055,55.979 306.920,56.255 306.200 C 56.382 305.870,56.745 305.600,57.062 305.600 C 57.379 305.600,58.055 305.150,58.565 304.600 C 59.075 304.050,59.630 303.600,59.800 303.600 C 59.970 303.600,60.525 303.150,61.035 302.600 C 61.545 302.050,62.221 301.600,62.538 301.600 C 62.855 301.600,63.218 301.330,63.345 301.000 C 63.471 300.670,63.859 300.400,64.207 300.400 C 64.554 300.400,65.255 299.950,65.765 299.400 C 66.275 298.850,66.830 298.400,67.000 298.400 C 67.170 298.400,67.725 297.950,68.235 297.400 C 68.745 296.850,69.421 296.400,69.738 296.400 C 70.055 296.400,70.418 296.130,70.545 295.800 C 70.671 295.470,71.128 295.200,71.560 295.200 C 71.995 295.200,72.460 294.842,72.600 294.400 C 72.740 293.960,73.022 293.600,73.227 293.600 C 73.432 293.600,73.600 293.060,73.600 292.400 C 73.600 291.740,73.440 291.200,73.243 291.200 C 73.047 291.200,72.777 290.762,72.642 290.227 C 72.508 289.691,72.039 289.139,71.599 289.000 C 71.158 288.860,70.800 288.394,70.800 287.960 C 70.800 287.528,70.530 287.071,70.200 286.945 C 69.870 286.818,69.600 286.393,69.600 286.000 C 69.600 285.607,69.330 285.182,69.000 285.055 C 68.670 284.929,68.400 284.459,68.400 284.013 C 68.400 283.566,68.220 283.200,68.000 283.200 C 67.780 283.200,67.600 282.949,67.600 282.643 C 67.600 282.336,67.330 281.982,67.000 281.855 C 66.670 281.729,66.400 281.259,66.400 280.813 C 66.400 280.366,66.240 280.000,66.043 280.000 C 65.847 280.000,65.574 279.550,65.436 279.000 C 65.298 278.450,65.008 278.000,64.792 278.000 C 64.577 278.000,64.400 277.730,64.400 277.400 C 64.400 277.070,64.234 276.800,64.032 276.800 C 63.829 276.800,63.545 276.260,63.400 275.600 C 63.255 274.940,62.971 274.400,62.768 274.400 C 62.566 274.400,62.400 274.059,62.400 273.643 C 62.400 273.226,62.130 272.782,61.800 272.655 C 61.470 272.529,61.200 272.059,61.200 271.613 C 61.200 271.166,61.034 270.800,60.832 270.800 C 60.629 270.800,60.345 270.260,60.200 269.600 C 60.055 268.940,59.771 268.400,59.568 268.400 C 59.366 268.400,59.200 268.130,59.200 267.800 C 59.200 267.470,59.040 267.200,58.845 267.200 C 58.650 267.200,58.369 266.390,58.221 265.400 C 58.072 264.410,57.782 263.600,57.575 263.600 C 57.369 263.600,57.200 263.330,57.200 263.000 C 57.200 262.670,57.022 262.400,56.805 262.400 C 56.587 262.400,56.294 261.680,56.154 260.800 C 56.013 259.920,55.741 259.200,55.549 259.200 C 55.357 259.200,55.200 258.930,55.200 258.600 C 55.200 258.270,55.043 258.000,54.851 258.000 C 54.659 258.000,54.387 257.280,54.246 256.400 C 54.106 255.520,53.830 254.800,53.633 254.800 C 53.436 254.800,53.151 253.900,53.000 252.800 C 52.849 251.700,52.562 250.800,52.362 250.800 C 52.163 250.800,52.000 250.427,52.000 249.971 C 52.000 249.516,51.743 248.886,51.429 248.571 C 50.805 247.948,48.000 247.777,48.000 248.362 M106.600 327.200 C 106.460 327.640,106.178 328.000,105.973 328.000 C 105.768 328.000,105.600 328.251,105.600 328.557 C 105.600 328.864,105.330 329.218,105.000 329.345 C 104.670 329.471,104.400 329.928,104.400 330.360 C 104.400 330.793,104.049 331.257,103.620 331.394 C 103.192 331.530,102.720 332.023,102.572 332.490 C 102.315 333.299,102.027 333.729,100.900 334.985 C 100.625 335.292,100.400 335.716,100.400 335.929 C 100.400 336.141,100.130 336.418,99.800 336.545 C 99.470 336.671,99.200 337.128,99.200 337.560 C 99.200 337.994,98.842 338.460,98.401 338.600 C 97.961 338.739,97.501 339.257,97.377 339.750 C 97.253 340.243,96.713 340.976,96.176 341.379 C 95.639 341.782,95.200 342.428,95.200 342.813 C 95.200 343.199,94.930 343.618,94.600 343.745 C 94.270 343.871,94.000 344.341,94.000 344.787 C 94.000 345.234,93.820 345.600,93.600 345.600 C 93.380 345.600,93.200 345.960,93.200 346.400 C 93.200 346.840,93.427 347.200,93.705 347.200 C 93.983 347.200,94.548 347.650,94.961 348.200 C 95.374 348.750,96.035 349.200,96.429 349.200 C 96.823 349.200,97.260 349.560,97.400 350.000 C 97.540 350.442,98.005 350.800,98.440 350.800 C 98.872 350.800,99.329 351.070,99.455 351.400 C 99.582 351.730,100.007 352.000,100.400 352.000 C 100.793 352.000,101.218 352.270,101.345 352.600 C 101.471 352.930,101.851 353.200,102.187 353.200 C 102.524 353.200,102.800 353.377,102.800 353.592 C 102.800 353.808,103.250 354.098,103.800 354.236 C 104.350 354.374,104.800 354.647,104.800 354.843 C 104.800 355.040,105.141 355.200,105.557 355.200 C 105.974 355.200,106.418 355.470,106.545 355.800 C 106.671 356.130,107.141 356.400,107.587 356.400 C 108.034 356.400,108.400 356.580,108.400 356.800 C 108.400 357.020,108.670 357.200,109.000 357.200 C 109.330 357.200,109.600 357.360,109.600 357.557 C 109.600 357.753,110.050 358.026,110.600 358.164 C 111.150 358.302,111.600 358.592,111.600 358.808 C 111.600 359.023,111.870 359.200,112.200 359.200 C 112.530 359.200,112.800 359.372,112.800 359.582 C 112.800 359.792,113.430 360.082,114.200 360.226 C 114.970 360.371,115.600 360.635,115.600 360.813 C 115.600 360.991,116.140 361.255,116.800 361.400 C 117.460 361.545,118.000 361.829,118.000 362.032 C 118.000 362.234,118.270 362.400,118.600 362.400 C 118.930 362.400,119.200 362.560,119.200 362.755 C 119.200 362.951,119.830 363.229,120.600 363.374 C 121.370 363.518,122.000 363.808,122.000 364.018 C 122.000 364.228,122.270 364.400,122.600 364.400 C 122.930 364.400,123.200 364.572,123.200 364.782 C 123.200 364.992,123.830 365.282,124.600 365.426 C 125.370 365.571,126.000 365.826,126.000 365.993 C 126.000 366.161,126.720 366.413,127.600 366.554 C 128.480 366.694,129.200 366.987,129.200 367.205 C 129.200 367.422,129.470 367.600,129.800 367.600 C 130.130 367.600,130.400 367.757,130.400 367.949 C 130.400 368.141,131.120 368.413,132.000 368.554 C 132.880 368.694,133.600 368.987,133.600 369.205 C 133.600 369.422,134.050 369.600,134.600 369.600 C 135.150 369.600,135.600 369.757,135.600 369.949 C 135.600 370.141,136.320 370.413,137.200 370.554 C 138.080 370.694,138.800 370.987,138.800 371.205 C 138.800 371.422,139.250 371.600,139.800 371.600 C 140.350 371.600,140.800 371.763,140.800 371.962 C 140.800 372.162,141.700 372.449,142.800 372.600 C 143.900 372.751,144.800 373.025,144.800 373.209 C 144.800 373.392,145.790 373.666,147.000 373.817 C 148.210 373.968,149.200 374.251,149.200 374.446 C 149.200 374.641,149.650 374.800,150.200 374.800 C 150.750 374.800,151.200 374.959,151.200 375.153 C 151.200 375.348,152.370 375.632,153.800 375.785 C 155.230 375.938,156.400 376.229,156.400 376.432 C 156.400 376.634,157.030 376.800,157.800 376.800 C 158.570 376.800,159.200 376.961,159.200 377.158 C 159.200 377.355,160.640 377.644,162.400 377.800 C 164.160 377.956,165.600 378.245,165.600 378.442 C 165.600 378.639,166.309 378.800,167.176 378.800 C 168.043 378.800,168.851 378.958,168.970 379.152 C 169.090 379.345,171.125 379.635,173.494 379.796 C 175.976 379.964,177.921 380.281,178.085 380.544 C 178.491 381.192,221.906 381.196,222.315 380.548 C 222.480 380.286,224.498 379.972,227.100 379.804 C 229.575 379.644,231.600 379.352,231.600 379.156 C 231.600 378.960,232.320 378.800,233.200 378.800 C 234.080 378.800,234.800 378.641,234.800 378.447 C 234.800 378.253,236.330 377.967,238.200 377.811 C 240.070 377.656,241.600 377.364,241.600 377.164 C 241.600 376.964,242.140 376.800,242.800 376.800 C 243.460 376.800,244.000 376.641,244.000 376.447 C 244.000 376.252,245.170 375.968,246.600 375.815 C 248.030 375.662,249.200 375.371,249.200 375.168 C 249.200 374.966,249.650 374.800,250.200 374.800 C 250.750 374.800,251.200 374.643,251.200 374.452 C 251.200 374.260,252.280 373.981,253.600 373.832 C 254.920 373.682,256.000 373.410,256.000 373.226 C 256.000 373.041,256.806 372.770,257.791 372.622 C 258.776 372.475,259.686 372.184,259.814 371.977 C 259.942 371.770,260.397 371.600,260.824 371.600 C 261.251 371.600,261.600 371.440,261.600 371.245 C 261.600 371.050,262.410 370.769,263.400 370.621 C 264.390 370.472,265.200 370.182,265.200 369.975 C 265.200 369.769,265.560 369.600,266.000 369.600 C 266.440 369.600,266.800 369.431,266.800 369.225 C 266.800 369.018,267.610 368.728,268.600 368.579 C 269.590 368.431,270.400 368.150,270.400 367.955 C 270.400 367.760,270.670 367.600,271.000 367.600 C 271.330 367.600,271.600 367.443,271.600 367.251 C 271.600 367.059,272.320 366.787,273.200 366.646 C 274.080 366.506,274.800 366.221,274.800 366.013 C 274.800 365.806,275.430 365.518,276.200 365.374 C 276.970 365.229,277.600 364.951,277.600 364.755 C 277.600 364.560,277.870 364.400,278.200 364.400 C 278.530 364.400,278.800 364.234,278.800 364.032 C 278.800 363.829,279.340 363.545,280.000 363.400 C 280.660 363.255,281.200 362.971,281.200 362.768 C 281.200 362.566,281.560 362.400,282.000 362.400 C 282.440 362.400,282.800 362.234,282.800 362.032 C 282.800 361.829,283.340 361.545,284.000 361.400 C 284.660 361.255,285.200 360.991,285.200 360.813 C 285.200 360.635,285.830 360.371,286.600 360.226 C 287.370 360.082,288.000 359.792,288.000 359.582 C 288.000 359.372,288.270 359.200,288.600 359.200 C 288.930 359.200,289.200 359.040,289.200 358.843 C 289.200 358.647,289.650 358.374,290.200 358.236 C 290.750 358.098,291.200 357.808,291.200 357.592 C 291.200 357.377,291.470 357.200,291.800 357.200 C 292.130 357.200,292.400 357.040,292.400 356.843 C 292.400 356.647,292.850 356.374,293.400 356.236 C 293.950 356.098,294.400 355.808,294.400 355.592 C 294.400 355.377,294.670 355.200,295.000 355.200 C 295.330 355.200,295.600 355.020,295.600 354.800 C 295.600 354.580,295.966 354.400,296.413 354.400 C 296.859 354.400,297.329 354.130,297.455 353.800 C 297.582 353.470,298.032 353.200,298.455 353.200 C 298.879 353.200,299.329 352.930,299.455 352.600 C 299.582 352.270,299.936 352.000,300.243 352.000 C 300.549 352.000,300.800 351.832,300.800 351.627 C 300.800 351.422,301.205 351.126,301.700 350.970 C 302.195 350.813,302.870 350.377,303.200 350.000 C 303.530 349.623,304.205 349.187,304.700 349.030 C 305.195 348.874,305.600 348.578,305.600 348.373 C 305.600 348.168,305.793 348.000,306.029 348.000 C 307.678 348.000,308.049 345.508,306.600 344.165 C 306.050 343.655,305.600 343.041,305.600 342.800 C 305.600 342.559,305.150 341.945,304.600 341.435 C 304.050 340.925,303.600 340.304,303.600 340.054 C 303.600 339.804,303.423 339.600,303.208 339.600 C 302.992 339.600,302.711 339.185,302.584 338.677 C 302.456 338.169,301.913 337.424,301.376 337.021 C 300.839 336.618,300.400 336.120,300.400 335.915 C 300.400 335.711,300.175 335.292,299.900 334.985 C 298.713 333.662,298.400 333.209,298.400 332.817 C 298.400 332.588,298.223 332.400,298.008 332.400 C 297.792 332.400,297.511 331.985,297.384 331.477 C 297.256 330.969,296.713 330.224,296.176 329.821 C 295.639 329.418,295.200 328.925,295.200 328.726 C 295.200 327.201,292.604 326.044,291.647 327.143 C 291.291 327.551,290.595 328.013,290.100 328.170 C 289.605 328.326,289.200 328.602,289.200 328.784 C 289.200 328.965,288.750 329.226,288.200 329.364 C 287.650 329.502,287.200 329.792,287.200 330.008 C 287.200 330.223,286.930 330.400,286.600 330.400 C 286.270 330.400,286.000 330.568,286.000 330.773 C 286.000 330.978,285.595 331.274,285.100 331.430 C 284.605 331.587,283.930 332.016,283.600 332.385 C 283.270 332.754,282.685 333.172,282.300 333.315 C 281.915 333.458,281.600 333.761,281.600 333.987 C 281.600 334.214,281.240 334.400,280.800 334.400 C 280.360 334.400,280.000 334.566,280.000 334.768 C 280.000 334.971,279.460 335.255,278.800 335.400 C 278.140 335.545,277.600 335.826,277.600 336.024 C 277.600 336.222,277.150 336.498,276.600 336.636 C 276.050 336.774,275.600 337.047,275.600 337.243 C 275.600 337.440,275.330 337.600,275.000 337.600 C 274.670 337.600,274.400 337.760,274.400 337.955 C 274.400 338.151,273.770 338.429,273.000 338.574 C 272.230 338.718,271.600 339.008,271.600 339.218 C 271.600 339.428,271.330 339.600,271.000 339.600 C 270.670 339.600,270.400 339.760,270.400 339.955 C 270.400 340.151,269.770 340.429,269.000 340.574 C 268.230 340.718,267.600 340.994,267.600 341.186 C 267.600 341.379,267.060 341.655,266.400 341.800 C 265.740 341.945,265.200 342.229,265.200 342.432 C 265.200 342.634,264.840 342.800,264.400 342.800 C 263.960 342.800,263.600 342.978,263.600 343.195 C 263.600 343.413,262.880 343.706,262.000 343.846 C 261.120 343.987,260.400 344.259,260.400 344.451 C 260.400 344.643,260.130 344.800,259.800 344.800 C 259.470 344.800,259.200 344.957,259.200 345.149 C 259.200 345.341,258.480 345.613,257.600 345.754 C 256.720 345.894,256.000 346.187,256.000 346.405 C 256.000 346.622,255.550 346.800,255.000 346.800 C 254.450 346.800,254.000 346.963,254.000 347.162 C 254.000 347.362,253.100 347.649,252.000 347.800 C 250.900 347.951,250.000 348.221,250.000 348.400 C 250.000 348.579,249.100 348.849,248.000 349.000 C 246.900 349.151,246.000 349.438,246.000 349.638 C 246.000 349.837,245.550 350.000,245.000 350.000 C 244.450 350.000,244.000 350.159,244.000 350.354 C 244.000 350.549,243.010 350.832,241.800 350.983 C 240.590 351.134,239.600 351.425,239.600 351.629 C 239.600 351.833,238.970 352.000,238.200 352.000 C 237.430 352.000,236.800 352.157,236.800 352.348 C 236.800 352.540,235.540 352.821,234.000 352.973 C 232.460 353.124,231.200 353.418,231.200 353.624 C 231.200 353.831,230.300 354.000,229.200 354.000 C 228.100 354.000,227.200 354.161,227.200 354.357 C 227.200 354.553,225.355 354.845,223.100 355.005 C 220.799 355.168,218.875 355.494,218.715 355.748 C 218.509 356.073,213.375 356.200,200.400 356.200 C 187.425 356.200,182.291 356.073,182.085 355.748 C 181.925 355.494,180.001 355.168,177.700 355.005 C 175.445 354.845,173.600 354.553,173.600 354.357 C 173.600 354.161,172.880 354.000,172.000 354.000 C 171.120 354.000,170.400 353.846,170.400 353.657 C 170.400 353.469,169.095 353.194,167.500 353.046 C 165.905 352.899,164.540 352.603,164.467 352.389 C 164.393 352.175,163.718 352.000,162.967 352.000 C 162.215 352.000,161.600 351.834,161.600 351.632 C 161.600 351.429,160.430 351.138,159.000 350.985 C 157.570 350.832,156.400 350.548,156.400 350.353 C 156.400 350.159,155.950 350.000,155.400 350.000 C 154.850 350.000,154.400 349.831,154.400 349.625 C 154.400 349.418,153.590 349.128,152.600 348.979 C 151.610 348.831,150.800 348.566,150.800 348.392 C 150.800 348.218,149.900 347.951,148.800 347.800 C 147.700 347.649,146.800 347.362,146.800 347.162 C 146.800 346.963,146.350 346.800,145.800 346.800 C 145.250 346.800,144.800 346.622,144.800 346.405 C 144.800 346.187,144.080 345.894,143.200 345.754 C 142.320 345.613,141.600 345.341,141.600 345.149 C 141.600 344.957,141.240 344.800,140.800 344.800 C 140.360 344.800,140.000 344.622,140.000 344.405 C 140.000 344.187,139.280 343.894,138.400 343.754 C 137.520 343.613,136.800 343.341,136.800 343.149 C 136.800 342.957,136.530 342.800,136.200 342.800 C 135.870 342.800,135.600 342.634,135.600 342.432 C 135.600 342.229,135.060 341.945,134.400 341.800 C 133.740 341.655,133.200 341.391,133.200 341.213 C 133.200 341.035,132.570 340.771,131.800 340.626 C 131.030 340.482,130.400 340.192,130.400 339.982 C 130.400 339.772,130.130 339.600,129.800 339.600 C 129.470 339.600,129.200 339.440,129.200 339.245 C 129.200 339.049,128.570 338.771,127.800 338.626 C 127.030 338.482,126.400 338.192,126.400 337.982 C 126.400 337.772,126.130 337.600,125.800 337.600 C 125.470 337.600,125.200 337.440,125.200 337.243 C 125.200 337.047,124.750 336.774,124.200 336.636 C 123.650 336.498,123.200 336.216,123.200 336.011 C 123.200 335.805,122.576 335.519,121.814 335.376 C 120.966 335.217,120.335 334.827,120.191 334.372 C 120.048 333.920,119.419 333.527,118.591 333.372 C 117.752 333.215,117.135 332.824,116.987 332.358 C 116.854 331.941,116.393 331.600,115.960 331.600 C 115.528 331.600,115.071 331.330,114.945 331.000 C 114.818 330.670,114.393 330.400,114.000 330.400 C 113.607 330.400,113.182 330.130,113.055 329.800 C 112.929 329.470,112.549 329.200,112.213 329.200 C 111.876 329.200,111.600 329.032,111.600 328.827 C 111.600 328.622,111.195 328.326,110.700 328.170 C 110.205 328.013,109.509 327.551,109.153 327.143 C 108.296 326.158,106.921 326.189,106.600 327.200 " stroke="none" fill="#003d4a" fill-rule="evenodd"></path><path id="path1" d="M189.100 63.468 C 186.710 63.556,184.800 63.799,184.800 64.014 C 184.800 64.226,183.630 64.400,182.200 64.400 C 180.770 64.400,179.600 64.557,179.600 64.748 C 179.600 64.940,177.980 65.224,176.000 65.378 C 174.020 65.533,172.400 65.827,172.400 66.030 C 172.400 66.234,171.590 66.400,170.600 66.400 C 169.610 66.400,168.800 66.562,168.800 66.761 C 168.800 66.959,167.720 67.247,166.399 67.400 C 165.079 67.553,163.905 67.831,163.790 68.016 C 163.675 68.202,162.776 68.475,161.791 68.622 C 160.806 68.770,160.000 69.050,160.000 69.245 C 160.000 69.440,159.627 69.600,159.171 69.600 C 158.286 69.600,157.200 70.466,157.200 71.171 C 157.200 71.407,157.363 71.600,157.562 71.600 C 157.762 71.600,158.049 72.500,158.200 73.600 C 158.351 74.700,158.638 75.600,158.838 75.600 C 159.037 75.600,159.200 76.050,159.200 76.600 C 159.200 77.150,159.367 77.600,159.571 77.600 C 159.775 77.600,160.066 78.590,160.217 79.800 C 160.368 81.010,160.651 82.000,160.846 82.000 C 161.041 82.000,161.200 82.450,161.200 83.000 C 161.200 83.550,161.363 84.000,161.562 84.000 C 161.762 84.000,162.049 84.900,162.200 86.000 C 162.351 87.100,162.618 88.000,162.792 88.000 C 162.966 88.000,163.230 88.806,163.378 89.791 C 163.525 90.776,163.816 91.686,164.023 91.814 C 164.230 91.942,164.400 92.420,164.400 92.875 C 164.400 93.730,168.244 93.683,168.792 92.822 C 168.907 92.643,170.125 92.367,171.500 92.209 C 172.875 92.051,174.000 91.759,174.000 91.561 C 174.000 91.362,174.630 91.200,175.400 91.200 C 176.170 91.200,176.800 91.034,176.800 90.830 C 176.800 90.627,178.420 90.333,180.400 90.178 C 182.380 90.024,184.000 89.740,184.000 89.548 C 184.000 89.357,184.990 89.200,186.200 89.200 C 187.410 89.200,188.400 89.020,188.400 88.800 C 188.400 88.543,192.533 88.400,200.000 88.400 C 207.467 88.400,211.600 88.543,211.600 88.800 C 211.600 89.026,212.733 89.200,214.200 89.200 C 215.630 89.200,216.800 89.357,216.800 89.548 C 216.800 89.740,218.420 90.024,220.400 90.178 C 222.380 90.333,224.000 90.627,224.000 90.830 C 224.000 91.034,224.529 91.200,225.176 91.200 C 225.823 91.200,226.453 91.362,226.576 91.561 C 226.698 91.759,227.879 92.047,229.199 92.200 C 230.520 92.353,231.600 92.624,231.600 92.802 C 231.600 92.979,232.500 93.249,233.600 93.400 C 234.700 93.551,235.600 93.838,235.600 94.038 C 235.600 94.237,236.050 94.400,236.600 94.400 C 237.150 94.400,237.600 94.557,237.600 94.749 C 237.600 94.941,238.320 95.213,239.200 95.354 C 240.080 95.494,240.800 95.787,240.800 96.005 C 240.800 96.222,241.250 96.400,241.800 96.400 C 242.350 96.400,242.800 96.572,242.800 96.782 C 242.800 96.992,243.430 97.282,244.200 97.426 C 244.970 97.571,245.600 97.849,245.600 98.045 C 245.600 98.240,246.050 98.400,246.600 98.400 C 247.150 98.400,247.600 98.566,247.600 98.768 C 247.600 98.971,248.140 99.255,248.800 99.400 C 249.460 99.545,250.000 99.821,250.000 100.014 C 250.000 100.206,250.624 100.481,251.386 100.624 C 252.209 100.778,252.865 101.175,253.000 101.600 C 253.135 102.025,253.791 102.422,254.614 102.576 C 255.376 102.719,256.000 103.008,256.000 103.218 C 256.000 103.428,256.270 103.600,256.600 103.600 C 256.930 103.600,257.200 103.777,257.200 103.992 C 257.200 104.208,257.650 104.498,258.200 104.636 C 258.750 104.774,259.200 105.026,259.200 105.197 C 259.200 105.367,259.515 105.612,259.900 105.742 C 260.701 106.011,261.915 106.770,262.712 107.500 C 263.012 107.775,263.475 108.000,263.740 108.000 C 264.006 108.000,264.483 108.360,264.800 108.800 C 265.808 110.198,268.800 109.223,268.800 107.496 C 268.800 107.287,269.250 106.761,269.800 106.329 C 270.350 105.896,270.800 105.367,270.800 105.153 C 270.800 104.939,271.250 104.314,271.800 103.764 C 272.350 103.214,272.800 102.502,272.800 102.182 C 272.800 101.862,272.968 101.600,273.173 101.600 C 273.378 101.600,273.672 101.202,273.827 100.715 C 273.981 100.229,274.534 99.495,275.054 99.086 C 275.574 98.677,276.000 98.167,276.000 97.953 C 276.000 97.739,276.450 97.114,277.000 96.564 C 277.550 96.014,278.000 95.342,278.000 95.070 C 278.000 94.799,278.360 94.317,278.800 94.000 C 279.240 93.683,279.600 93.221,279.600 92.974 C 279.600 92.726,279.960 92.198,280.400 91.800 C 281.391 90.904,281.447 89.267,280.500 88.915 C 280.115 88.772,279.530 88.354,279.200 87.985 C 278.870 87.616,278.195 87.187,277.700 87.030 C 277.205 86.874,276.800 86.578,276.800 86.373 C 276.800 86.168,276.530 86.000,276.200 86.000 C 275.870 86.000,275.600 85.832,275.600 85.627 C 275.600 85.422,275.195 85.126,274.700 84.970 C 274.205 84.813,273.530 84.377,273.200 84.000 C 272.870 83.623,272.195 83.187,271.700 83.030 C 271.205 82.874,270.800 82.593,270.800 82.405 C 270.800 82.217,270.260 81.945,269.600 81.800 C 268.940 81.655,268.400 81.371,268.400 81.168 C 268.400 80.966,268.059 80.800,267.643 80.800 C 267.226 80.800,266.782 80.530,266.655 80.200 C 266.529 79.870,266.149 79.600,265.813 79.600 C 265.476 79.600,265.200 79.420,265.200 79.200 C 265.200 78.980,264.840 78.800,264.400 78.800 C 263.960 78.800,263.600 78.634,263.600 78.432 C 263.600 78.229,263.060 77.945,262.400 77.800 C 261.740 77.655,261.200 77.413,261.200 77.263 C 261.200 76.870,258.143 75.600,257.197 75.600 C 256.759 75.600,256.400 75.434,256.400 75.232 C 256.400 75.029,255.860 74.745,255.200 74.600 C 254.540 74.455,254.000 74.171,254.000 73.968 C 254.000 73.766,253.550 73.600,253.000 73.600 C 252.450 73.600,252.000 73.422,252.000 73.205 C 252.000 72.987,251.280 72.694,250.400 72.554 C 249.520 72.413,248.800 72.141,248.800 71.949 C 248.800 71.757,248.440 71.600,248.000 71.600 C 247.560 71.600,247.200 71.431,247.200 71.225 C 247.200 71.018,246.390 70.728,245.400 70.579 C 244.410 70.431,243.600 70.150,243.600 69.955 C 243.600 69.760,243.161 69.600,242.624 69.600 C 242.087 69.600,241.549 69.441,241.429 69.247 C 241.309 69.052,240.218 68.770,239.005 68.618 C 237.792 68.466,236.800 68.190,236.800 68.003 C 236.800 67.816,235.630 67.538,234.200 67.385 C 232.770 67.232,231.600 66.948,231.600 66.753 C 231.600 66.559,230.895 66.400,230.033 66.400 C 229.172 66.400,228.407 66.226,228.333 66.014 C 228.260 65.801,226.445 65.505,224.300 65.355 C 222.155 65.205,220.400 64.928,220.400 64.741 C 220.400 64.553,219.425 64.400,218.233 64.400 C 217.042 64.400,216.007 64.224,215.933 64.009 C 215.789 63.585,196.452 63.195,189.100 63.468 M308.608 119.976 C 308.464 120.428,307.909 120.908,307.373 121.042 C 306.838 121.177,306.400 121.435,306.400 121.616 C 306.400 121.798,306.010 122.070,305.534 122.221 C 305.058 122.372,304.239 122.924,303.716 123.448 C 303.192 123.972,302.514 124.400,302.209 124.400 C 301.904 124.400,301.543 124.751,301.406 125.180 C 301.270 125.608,300.763 126.084,300.280 126.237 C 299.796 126.389,299.109 126.849,298.753 127.257 C 298.397 127.666,297.939 128.000,297.734 128.000 C 297.301 128.000,295.997 128.946,294.290 130.500 C 293.625 131.105,292.920 131.600,292.722 131.600 C 291.201 131.600,290.046 134.198,291.143 135.153 C 291.551 135.509,292.013 136.205,292.170 136.700 C 292.326 137.195,292.622 137.600,292.827 137.600 C 293.032 137.600,293.200 137.870,293.200 138.200 C 293.200 138.530,293.368 138.800,293.573 138.800 C 293.778 138.800,294.072 139.197,294.226 139.681 C 294.380 140.166,294.752 140.809,295.053 141.110 C 295.354 141.411,295.600 141.914,295.600 142.229 C 295.600 142.543,295.780 142.800,296.000 142.800 C 296.220 142.800,296.400 143.070,296.400 143.400 C 296.400 143.730,296.577 144.000,296.792 144.000 C 297.008 144.000,297.298 144.450,297.436 145.000 C 297.574 145.550,297.847 146.000,298.043 146.000 C 298.240 146.000,298.400 146.270,298.400 146.600 C 298.400 146.930,298.560 147.200,298.755 147.200 C 298.951 147.200,299.229 147.830,299.374 148.600 C 299.518 149.370,299.808 150.000,300.018 150.000 C 300.228 150.000,300.400 150.270,300.400 150.600 C 300.400 150.930,300.560 151.200,300.755 151.200 C 300.951 151.200,301.229 151.830,301.374 152.600 C 301.518 153.370,301.794 154.000,301.986 154.000 C 302.179 154.000,302.455 154.540,302.600 155.200 C 302.745 155.860,303.029 156.400,303.232 156.400 C 303.434 156.400,303.600 156.850,303.600 157.400 C 303.600 157.950,303.764 158.400,303.965 158.400 C 304.166 158.400,304.451 159.120,304.600 160.000 C 304.749 160.880,305.034 161.600,305.235 161.600 C 305.436 161.600,305.600 162.050,305.600 162.600 C 305.600 163.150,305.763 163.600,305.962 163.600 C 306.162 163.600,306.449 164.500,306.600 165.600 C 306.751 166.700,307.038 167.600,307.238 167.600 C 307.437 167.600,307.600 168.050,307.600 168.600 C 307.600 169.150,307.759 169.600,307.953 169.600 C 308.148 169.600,308.432 170.770,308.585 172.200 C 308.738 173.630,309.017 174.800,309.204 174.800 C 309.392 174.800,309.671 176.240,309.824 178.000 C 309.978 179.760,310.260 181.200,310.452 181.200 C 310.643 181.200,310.800 182.085,310.800 183.167 C 310.800 184.384,310.990 185.197,311.300 185.300 C 312.029 185.543,312.029 214.457,311.300 214.700 C 310.983 214.806,310.800 215.651,310.800 217.010 C 310.800 218.188,310.638 219.253,310.441 219.375 C 310.243 219.497,309.955 220.858,309.800 222.398 C 309.645 223.939,309.378 225.200,309.206 225.200 C 309.034 225.200,308.768 226.370,308.615 227.800 C 308.462 229.230,308.171 230.400,307.968 230.400 C 307.766 230.400,307.600 230.850,307.600 231.400 C 307.600 231.950,307.420 232.400,307.200 232.400 C 306.604 232.400,306.716 235.174,307.338 235.795 C 307.633 236.090,308.713 236.458,309.738 236.612 C 310.762 236.765,311.600 237.050,311.600 237.245 C 311.600 237.440,312.050 237.600,312.600 237.600 C 313.150 237.600,313.600 237.760,313.600 237.955 C 313.600 238.150,314.406 238.430,315.391 238.578 C 316.376 238.725,317.280 239.005,317.400 239.200 C 317.520 239.395,318.424 239.675,319.409 239.822 C 320.394 239.970,321.200 240.250,321.200 240.445 C 321.200 240.640,321.650 240.800,322.200 240.800 C 322.750 240.800,323.200 240.957,323.200 241.148 C 323.200 241.340,324.280 241.619,325.600 241.768 C 326.920 241.918,328.000 242.211,328.000 242.420 C 328.000 243.002,329.986 242.872,330.608 242.249 C 330.911 241.946,331.282 240.776,331.431 239.649 C 331.581 238.522,331.860 237.600,332.052 237.600 C 332.243 237.600,332.400 237.165,332.400 236.633 C 332.400 236.102,332.571 235.607,332.781 235.533 C 332.990 235.460,333.287 234.140,333.440 232.600 C 333.594 231.060,333.872 229.700,334.058 229.577 C 334.245 229.455,334.514 227.970,334.657 226.277 C 334.800 224.585,335.071 223.200,335.259 223.200 C 335.446 223.200,335.600 222.246,335.600 221.080 C 335.600 219.914,335.825 218.735,336.100 218.460 C 336.485 218.075,336.600 213.817,336.600 199.913 C 336.600 185.831,336.490 181.830,336.100 181.700 C 335.775 181.592,335.600 180.704,335.600 179.167 C 335.600 177.865,335.439 176.800,335.242 176.800 C 335.045 176.800,334.756 175.360,334.600 173.600 C 334.444 171.840,334.177 170.400,334.005 170.400 C 333.834 170.400,333.567 169.050,333.413 167.400 C 333.258 165.750,332.967 164.400,332.766 164.400 C 332.565 164.400,332.400 163.950,332.400 163.400 C 332.400 162.850,332.241 162.400,332.046 162.400 C 331.851 162.400,331.568 161.410,331.417 160.200 C 331.266 158.990,330.975 158.000,330.771 158.000 C 330.567 158.000,330.400 157.550,330.400 157.000 C 330.400 156.450,330.237 156.000,330.038 156.000 C 329.838 156.000,329.551 155.100,329.400 154.000 C 329.249 152.900,328.962 152.000,328.762 152.000 C 328.563 152.000,328.400 151.730,328.400 151.400 C 328.400 151.070,328.243 150.800,328.051 150.800 C 327.859 150.800,327.587 150.080,327.446 149.200 C 327.306 148.320,327.013 147.600,326.795 147.600 C 326.578 147.600,326.400 147.241,326.400 146.803 C 326.400 145.857,325.130 142.800,324.737 142.800 C 324.587 142.800,324.345 142.260,324.200 141.600 C 324.055 140.940,323.771 140.400,323.568 140.400 C 323.366 140.400,323.200 140.040,323.200 139.600 C 323.200 139.160,323.034 138.800,322.832 138.800 C 322.629 138.800,322.345 138.260,322.200 137.600 C 322.055 136.940,321.771 136.400,321.568 136.400 C 321.366 136.400,321.200 136.130,321.200 135.800 C 321.200 135.470,321.040 135.200,320.845 135.200 C 320.649 135.200,320.371 134.570,320.226 133.800 C 320.082 133.030,319.811 132.400,319.625 132.400 C 319.439 132.400,319.174 131.950,319.036 131.400 C 318.898 130.850,318.608 130.400,318.392 130.400 C 318.177 130.400,318.000 130.130,318.000 129.800 C 318.000 129.470,317.840 129.200,317.643 129.200 C 317.447 129.200,317.174 128.750,317.036 128.200 C 316.898 127.650,316.608 127.200,316.392 127.200 C 316.177 127.200,316.000 126.930,316.000 126.600 C 316.000 126.270,315.832 126.000,315.627 126.000 C 315.422 126.000,315.126 125.595,314.970 125.100 C 314.813 124.605,314.351 123.909,313.943 123.553 C 313.534 123.197,313.200 122.715,313.200 122.482 C 313.200 122.248,312.975 121.812,312.700 121.512 C 312.425 121.212,312.002 120.614,311.760 120.183 C 311.120 119.045,308.948 118.902,308.608 119.976 M70.100 157.798 C 69.825 158.111,69.600 158.788,69.600 159.303 C 69.600 159.818,69.415 160.425,69.189 160.651 C 68.964 160.876,68.668 161.992,68.534 163.131 C 68.399 164.269,68.148 165.200,67.976 165.200 C 67.804 165.200,67.538 166.370,67.385 167.800 C 67.232 169.230,66.948 170.400,66.753 170.400 C 66.559 170.400,66.400 171.120,66.400 172.000 C 66.400 172.880,66.237 173.600,66.038 173.600 C 65.840 173.600,65.548 175.490,65.391 177.800 C 65.233 180.110,64.946 182.000,64.752 182.000 C 64.558 182.000,64.400 183.350,64.400 185.000 C 64.400 186.733,64.231 188.000,64.000 188.000 C 63.742 188.000,63.600 192.267,63.600 200.000 C 63.600 207.733,63.742 212.000,64.000 212.000 C 64.235 212.000,64.400 213.400,64.400 215.400 C 64.400 217.270,64.563 218.800,64.763 218.800 C 64.962 218.800,65.254 220.510,65.410 222.600 C 65.567 224.690,65.854 226.400,66.048 226.400 C 66.241 226.400,66.400 227.120,66.400 228.000 C 66.400 228.880,66.559 229.600,66.753 229.600 C 66.948 229.600,67.232 230.770,67.385 232.200 C 67.538 233.630,67.804 234.800,67.976 234.800 C 68.148 234.800,68.399 235.731,68.534 236.869 C 68.668 238.008,68.964 239.124,69.189 239.349 C 69.415 239.575,69.600 240.264,69.600 240.880 C 69.600 241.496,69.763 242.000,69.962 242.000 C 70.162 242.000,70.449 242.900,70.600 244.000 C 70.751 245.100,71.038 246.000,71.238 246.000 C 71.437 246.000,71.600 246.270,71.600 246.600 C 71.600 246.930,71.763 247.200,71.962 247.200 C 72.162 247.200,72.449 248.100,72.600 249.200 C 72.751 250.300,73.038 251.200,73.238 251.200 C 73.437 251.200,73.600 251.560,73.600 252.000 C 73.600 252.440,73.778 252.800,73.995 252.800 C 74.213 252.800,74.506 253.520,74.646 254.400 C 74.787 255.280,75.045 256.000,75.219 256.000 C 75.394 256.000,75.655 256.540,75.800 257.200 C 75.945 257.860,76.187 258.400,76.337 258.400 C 76.635 258.400,78.000 261.357,78.000 262.003 C 78.000 262.221,78.180 262.400,78.400 262.400 C 78.620 262.400,78.800 262.670,78.800 263.000 C 78.800 263.330,78.960 263.600,79.155 263.600 C 79.351 263.600,79.629 264.230,79.774 265.000 C 79.918 265.770,80.208 266.400,80.418 266.400 C 80.628 266.400,80.800 266.670,80.800 267.000 C 80.800 267.330,80.977 267.600,81.192 267.600 C 81.408 267.600,81.698 268.050,81.836 268.600 C 81.974 269.150,82.233 269.600,82.412 269.600 C 82.590 269.600,82.855 270.140,83.000 270.800 C 83.145 271.459,83.583 272.224,83.974 272.500 C 84.365 272.775,84.813 273.405,84.970 273.900 C 85.126 274.395,85.422 274.800,85.627 274.800 C 85.832 274.800,86.000 275.070,86.000 275.400 C 86.000 275.730,86.168 276.000,86.373 276.000 C 86.578 276.000,86.874 276.405,87.030 276.900 C 87.187 277.395,87.623 278.070,88.000 278.400 C 88.377 278.730,88.813 279.405,88.970 279.900 C 89.307 280.967,91.207 281.155,92.000 280.200 C 92.274 279.870,92.664 279.600,92.867 279.600 C 93.070 279.600,93.686 279.150,94.236 278.600 C 94.786 278.050,95.458 277.600,95.730 277.600 C 96.001 277.600,96.483 277.240,96.800 276.800 C 97.117 276.360,97.594 276.000,97.859 276.000 C 98.125 276.000,98.696 275.550,99.129 275.000 C 99.561 274.450,100.087 274.000,100.296 274.000 C 100.506 274.000,101.093 273.640,101.600 273.200 C 102.107 272.760,102.725 272.400,102.973 272.400 C 103.221 272.400,103.683 272.040,104.000 271.600 C 104.317 271.160,104.794 270.800,105.059 270.800 C 105.325 270.800,105.896 270.350,106.329 269.800 C 106.761 269.250,107.306 268.800,107.539 268.800 C 109.148 268.800,110.510 265.767,109.400 264.657 C 109.070 264.327,108.800 263.864,108.800 263.629 C 108.800 263.393,108.623 263.200,108.408 263.200 C 108.192 263.200,107.902 262.750,107.764 262.200 C 107.626 261.650,107.365 261.200,107.184 261.200 C 107.002 261.200,106.726 260.795,106.570 260.300 C 106.413 259.805,105.977 259.130,105.600 258.800 C 105.223 258.470,104.773 257.750,104.600 257.200 C 104.427 256.650,103.963 255.919,103.570 255.576 C 103.176 255.233,102.732 254.468,102.583 253.876 C 102.435 253.284,102.153 252.800,101.957 252.800 C 101.760 252.800,101.600 252.440,101.600 252.000 C 101.600 251.560,101.434 251.200,101.232 251.200 C 101.029 251.200,100.745 250.660,100.600 250.000 C 100.455 249.340,100.171 248.800,99.968 248.800 C 99.766 248.800,99.600 248.602,99.600 248.360 C 99.600 247.830,98.348 245.081,97.979 244.800 C 97.834 244.690,97.591 243.925,97.440 243.100 C 97.288 242.275,96.992 241.600,96.782 241.600 C 96.572 241.600,96.400 241.330,96.400 241.000 C 96.400 240.670,96.237 240.400,96.038 240.400 C 95.838 240.400,95.551 239.500,95.400 238.400 C 95.249 237.300,94.962 236.400,94.762 236.400 C 94.563 236.400,94.400 235.950,94.400 235.400 C 94.400 234.850,94.237 234.400,94.038 234.400 C 93.838 234.400,93.551 233.500,93.400 232.400 C 93.249 231.300,92.976 230.400,92.794 230.400 C 92.612 230.400,92.338 229.230,92.185 227.800 C 92.032 226.370,91.748 225.200,91.553 225.200 C 91.359 225.200,91.200 224.495,91.200 223.633 C 91.200 222.772,91.026 222.007,90.814 221.933 C 90.601 221.860,90.305 220.045,90.155 217.900 C 90.005 215.755,89.728 214.000,89.541 214.000 C 89.353 214.000,89.200 212.740,89.200 211.200 C 89.200 209.600,89.029 208.400,88.800 208.400 C 88.546 208.400,88.400 205.400,88.400 200.200 C 88.400 195.000,88.546 192.000,88.800 192.000 C 89.031 192.000,89.200 190.733,89.200 189.000 C 89.200 187.350,89.353 186.000,89.541 186.000 C 89.728 186.000,90.005 184.245,90.155 182.100 C 90.305 179.955,90.601 178.140,90.814 178.067 C 91.026 177.993,91.200 177.228,91.200 176.367 C 91.200 175.505,91.359 174.800,91.554 174.800 C 91.749 174.800,92.032 173.810,92.183 172.600 C 92.334 171.390,92.606 170.400,92.788 170.400 C 92.970 170.400,93.246 169.136,93.401 167.591 C 93.737 164.242,93.452 163.747,90.967 163.374 C 89.995 163.228,89.200 162.966,89.200 162.792 C 89.200 162.618,88.300 162.351,87.200 162.200 C 86.100 162.049,85.200 161.762,85.200 161.562 C 85.200 161.363,84.750 161.200,84.200 161.200 C 83.650 161.200,83.200 161.033,83.200 160.829 C 83.200 160.625,82.210 160.334,81.000 160.183 C 79.790 160.032,78.800 159.749,78.800 159.554 C 78.800 159.359,78.350 159.200,77.800 159.200 C 77.250 159.200,76.800 159.037,76.800 158.838 C 76.800 158.638,75.900 158.351,74.800 158.200 C 73.700 158.049,72.800 157.762,72.800 157.562 C 72.800 156.985,70.651 157.173,70.100 157.798 M132.546 291.363 C 132.077 291.866,131.570 292.665,131.419 293.139 C 131.269 293.612,130.978 294.000,130.773 294.000 C 130.568 294.000,130.400 294.189,130.400 294.419 C 130.400 294.650,129.950 295.255,129.400 295.765 C 128.850 296.275,128.400 296.888,128.400 297.128 C 128.400 297.367,127.972 297.992,127.448 298.516 C 126.924 299.039,126.372 299.858,126.221 300.334 C 126.070 300.810,125.778 301.200,125.573 301.200 C 125.368 301.200,125.200 301.389,125.200 301.619 C 125.200 301.850,124.750 302.455,124.200 302.965 C 123.650 303.475,123.200 304.053,123.200 304.250 C 123.200 304.447,122.772 305.070,122.249 305.633 C 121.727 306.197,121.174 307.050,121.022 307.529 C 120.870 308.008,120.578 308.400,120.373 308.400 C 120.168 308.400,120.000 309.120,120.000 310.000 C 120.000 311.160,120.166 311.600,120.604 311.600 C 120.936 311.600,121.516 311.960,121.893 312.400 C 122.270 312.840,122.886 313.200,123.262 313.200 C 123.638 313.200,124.054 313.541,124.187 313.958 C 124.331 314.414,124.945 314.813,125.727 314.960 C 126.441 315.094,127.285 315.563,127.601 316.002 C 127.918 316.441,128.413 316.800,128.701 316.800 C 128.989 316.800,129.329 317.070,129.455 317.400 C 129.582 317.730,130.026 318.000,130.443 318.000 C 130.859 318.000,131.200 318.166,131.200 318.368 C 131.200 318.571,131.740 318.855,132.400 319.000 C 133.060 319.145,133.600 319.417,133.600 319.605 C 133.600 319.793,134.005 320.072,134.500 320.227 C 134.995 320.381,135.490 320.628,135.600 320.775 C 135.878 321.146,138.625 322.400,139.160 322.400 C 139.402 322.400,139.600 322.580,139.600 322.800 C 139.600 323.020,139.870 323.200,140.200 323.200 C 140.530 323.200,140.800 323.372,140.800 323.582 C 140.800 323.792,141.430 324.082,142.200 324.226 C 142.970 324.371,143.600 324.649,143.600 324.845 C 143.600 325.040,144.050 325.200,144.600 325.200 C 145.150 325.200,145.600 325.366,145.600 325.568 C 145.600 325.771,146.140 326.055,146.800 326.200 C 147.460 326.345,148.000 326.612,148.000 326.794 C 148.000 326.976,148.900 327.249,150.000 327.400 C 151.100 327.551,152.000 327.838,152.000 328.038 C 152.000 328.237,152.270 328.400,152.600 328.400 C 152.930 328.400,153.200 328.563,153.200 328.762 C 153.200 328.962,154.100 329.249,155.200 329.400 C 156.300 329.551,157.200 329.838,157.200 330.038 C 157.200 330.237,157.650 330.400,158.200 330.400 C 158.750 330.400,159.200 330.567,159.200 330.771 C 159.200 330.975,160.192 331.266,161.405 331.418 C 162.618 331.570,163.709 331.852,163.829 332.047 C 163.949 332.241,164.562 332.400,165.190 332.400 C 165.819 332.400,166.393 332.575,166.467 332.789 C 166.540 333.003,167.905 333.299,169.500 333.446 C 171.095 333.594,172.400 333.856,172.400 334.027 C 172.400 334.199,174.020 334.467,176.000 334.622 C 177.980 334.776,179.600 335.060,179.600 335.252 C 179.600 335.443,180.575 335.600,181.767 335.600 C 183.144 335.600,183.994 335.782,184.100 336.100 C 184.230 336.489,187.792 336.600,200.113 336.600 C 212.257 336.600,216.077 336.483,216.460 336.100 C 216.735 335.825,217.914 335.600,219.080 335.600 C 220.246 335.600,221.200 335.439,221.200 335.243 C 221.200 335.047,223.000 334.757,225.200 334.600 C 227.400 334.443,229.200 334.171,229.200 333.996 C 229.200 333.821,230.280 333.553,231.601 333.400 C 232.921 333.247,234.102 332.959,234.224 332.761 C 234.347 332.562,234.977 332.400,235.624 332.400 C 236.271 332.400,236.800 332.243,236.800 332.052 C 236.800 331.860,237.880 331.581,239.200 331.432 C 240.520 331.282,241.600 330.989,241.600 330.780 C 241.600 330.571,242.050 330.400,242.600 330.400 C 243.400 330.400,243.600 330.200,243.600 329.400 C 243.600 328.850,243.420 328.400,243.200 328.400 C 242.980 328.400,242.800 327.950,242.800 327.400 C 242.800 326.850,242.641 326.400,242.446 326.400 C 242.251 326.400,241.968 325.410,241.817 324.200 C 241.666 322.990,241.375 322.000,241.171 322.000 C 240.967 322.000,240.800 321.550,240.800 321.000 C 240.800 320.450,240.637 320.000,240.438 320.000 C 240.238 320.000,239.951 319.100,239.800 318.000 C 239.649 316.900,239.382 316.000,239.208 316.000 C 239.034 316.000,238.770 315.194,238.622 314.209 C 238.475 313.224,238.184 312.314,237.977 312.186 C 237.770 312.058,237.600 311.513,237.600 310.976 C 237.600 310.439,237.431 310.000,237.225 310.000 C 237.018 310.000,236.724 309.168,236.572 308.151 L 236.295 306.302 234.047 306.565 C 232.811 306.709,231.740 307.001,231.667 307.214 C 231.593 307.426,231.098 307.600,230.567 307.600 C 230.035 307.600,229.600 307.766,229.600 307.968 C 229.600 308.171,228.430 308.462,227.000 308.615 C 225.570 308.768,224.400 309.036,224.400 309.211 C 224.400 309.385,222.867 309.656,220.994 309.812 C 219.121 309.968,217.490 310.254,217.370 310.448 C 217.251 310.642,216.188 310.800,215.010 310.800 C 213.767 310.800,212.803 310.991,212.715 311.254 C 212.607 311.579,209.118 311.708,200.400 311.708 C 191.682 311.708,188.193 311.579,188.085 311.254 C 187.995 310.984,186.976 310.800,185.567 310.800 C 184.265 310.800,183.200 310.643,183.200 310.452 C 183.200 310.260,181.760 309.978,180.000 309.824 C 178.240 309.671,176.800 309.399,176.800 309.220 C 176.800 309.040,175.450 308.767,173.800 308.613 C 172.150 308.458,170.800 308.167,170.800 307.966 C 170.800 307.765,170.350 307.600,169.800 307.600 C 169.250 307.600,168.800 307.440,168.800 307.245 C 168.800 307.050,167.990 306.769,167.000 306.621 C 166.010 306.472,165.200 306.182,165.200 305.975 C 165.200 305.769,164.761 305.600,164.224 305.600 C 163.687 305.600,163.149 305.440,163.028 305.245 C 162.907 305.050,162.177 304.772,161.404 304.627 C 160.632 304.482,160.000 304.192,160.000 303.982 C 160.000 303.772,159.661 303.600,159.246 303.600 C 158.831 303.600,157.976 303.331,157.346 303.002 C 156.716 302.674,155.795 302.404,155.300 302.402 C 154.805 302.401,154.400 302.234,154.400 302.032 C 154.400 301.829,153.860 301.545,153.200 301.400 C 152.540 301.255,152.000 300.971,152.000 300.768 C 152.000 300.566,151.730 300.400,151.400 300.400 C 151.070 300.400,150.800 300.240,150.800 300.045 C 150.800 299.849,150.170 299.571,149.400 299.426 C 148.630 299.282,148.000 298.992,148.000 298.782 C 148.000 298.572,147.730 298.400,147.400 298.400 C 147.070 298.400,146.800 298.232,146.800 298.027 C 146.800 297.822,146.395 297.528,145.900 297.373 C 145.405 297.219,144.910 296.981,144.800 296.846 C 144.479 296.451,143.060 295.597,142.300 295.342 C 141.915 295.212,141.600 294.948,141.600 294.753 C 141.600 294.559,141.249 294.400,140.820 294.400 C 140.391 294.400,139.896 294.175,139.720 293.900 C 139.396 293.393,138.293 292.616,137.200 292.125 C 136.870 291.977,136.309 291.528,135.953 291.128 C 135.081 290.146,133.586 290.250,132.546 291.363 " stroke="none" fill="#a3ca50" fill-rule="evenodd"></path><path id="path2" d="" stroke="none" fill="#55ff00" fill-rule="evenodd"></path><path id="path3" d="" stroke="none" fill="#99ff33" fill-rule="evenodd"></path><path id="path4" d="" stroke="none" fill="#ffff00" fill-rule="evenodd"></path></g></svg>